<?xml version="1.0" encoding="UTF-8" standalone="no"?>
<!DOCTYPE svg PUBLIC "-//W3C//DTD SVG 1.1//EN"
 "http://www.w3.org/Graphics/SVG/1.1/DTD/svg11.dtd">
<!-- Generated by graphviz version 2.43.0 (0)
 -->
<!-- Title: sourcetree Pages: 1 -->
<svg width="275pt" height="1178pt"
 viewBox="0.00 0.00 275.00 1178.00" xmlns="http://www.w3.org/2000/svg" xmlns:xlink="http://www.w3.org/1999/xlink">
<g id="graph0" class="graph" transform="scale(1 1) rotate(0) translate(4 1174)">
<title>sourcetree</title>
<polygon fill="white" stroke="transparent" points="-4,4 -4,-1174 271,-1174 271,4 -4,4"/>
<!-- mulle&#45;core -->
<g id="node1" class="node">
<title>mulle&#45;core</title>
<polygon fill="yellow" stroke="black" points="92,-603 0,-603 0,-567 92,-567 92,-603"/>
<text text-anchor="middle" x="46" y="-581.3" font-family="Times,serif" font-size="14.00">mulle&#45;core</text>
</g>
<!-- mulle&#45;aba -->
<g id="node2" class="node">
<title>mulle&#45;aba</title>
<g id="a_node2"><a xlink:href="https://github.com/mulle-concurrent/mulle-aba@*" xlink:title="mulle&#45;aba">
<polygon fill="lightgrey" stroke="black" points="240.5,-1170 154.5,-1170 154.5,-1134 240.5,-1134 240.5,-1170"/>
<text text-anchor="middle" x="197.5" y="-1148.3" font-family="Times,serif" font-size="14.00">mulle&#45;aba</text>
</a>
</g>
</g>
<!-- mulle&#45;core&#45;&gt;mulle&#45;aba -->
<g id="edge1" class="edge">
<title>mulle&#45;core&#45;&gt;mulle&#45;aba</title>
<path fill="none" stroke="black" d="M47.35,-603.17C49.35,-687.65 61.6,-1041.55 128,-1125 132.6,-1130.78 138.6,-1135.32 145.15,-1138.89"/>
<polygon fill="black" stroke="black" points="143.8,-1142.12 154.34,-1143.19 146.76,-1135.78 143.8,-1142.12"/>
</g>
<!-- mulle&#45;allocator -->
<g id="node3" class="node">
<title>mulle&#45;allocator</title>
<g id="a_node3"><a xlink:href="https://github.com/mulle-c/mulle-allocator@*" xlink:title="mulle&#45;allocator">
<polygon fill="lightgrey" stroke="black" points="259,-1116 136,-1116 136,-1080 259,-1080 259,-1116"/>
<text text-anchor="middle" x="197.5" y="-1094.3" font-family="Times,serif" font-size="14.00">mulle&#45;allocator</text>
</a>
</g>
</g>
<!-- mulle&#45;core&#45;&gt;mulle&#45;allocator -->
<g id="edge2" class="edge">
<title>mulle&#45;core&#45;&gt;mulle&#45;allocator</title>
<path fill="none" stroke="black" d="M47.69,-603.18C51.03,-682.4 67.94,-996.77 128,-1071 128.6,-1071.74 129.22,-1072.46 129.86,-1073.16"/>
<polygon fill="black" stroke="black" points="127.67,-1075.89 137.47,-1079.92 132.32,-1070.66 127.67,-1075.89"/>
</g>
<!-- mulle&#45;buffer -->
<g id="node4" class="node">
<title>mulle&#45;buffer</title>
<g id="a_node4"><a xlink:href="https://github.com/mulle-c/mulle-buffer@*" xlink:title="mulle&#45;buffer">
<polygon fill="lightgrey" stroke="black" points="249.5,-1062 145.5,-1062 145.5,-1026 249.5,-1026 249.5,-1062"/>
<text text-anchor="middle" x="197.5" y="-1040.3" font-family="Times,serif" font-size="14.00">mulle&#45;buffer</text>
</a>
</g>
</g>
<!-- mulle&#45;core&#45;&gt;mulle&#45;buffer -->
<g id="edge3" class="edge">
<title>mulle&#45;core&#45;&gt;mulle&#45;buffer</title>
<path fill="none" stroke="black" d="M48.12,-603.37C52.95,-677.27 74.31,-951.99 128,-1017 130.58,-1020.13 133.58,-1022.89 136.84,-1025.34"/>
<polygon fill="black" stroke="black" points="135.11,-1028.39 145.43,-1030.79 138.86,-1022.48 135.11,-1028.39"/>
</g>
<!-- mulle&#45;c11 -->
<g id="node5" class="node">
<title>mulle&#45;c11</title>
<g id="a_node5"><a xlink:href="https://github.com/mulle-c/mulle-c11@*" xlink:title="mulle&#45;c11">
<polygon fill="lightgrey" stroke="black" points="240.5,-1008 154.5,-1008 154.5,-972 240.5,-972 240.5,-1008"/>
<text text-anchor="middle" x="197.5" y="-986.3" font-family="Times,serif" font-size="14.00">mulle&#45;c11</text>
</a>
</g>
</g>
<!-- mulle&#45;core&#45;&gt;mulle&#45;c11 -->
<g id="edge4" class="edge">
<title>mulle&#45;core&#45;&gt;mulle&#45;c11</title>
<path fill="none" stroke="black" d="M48.65,-603.36C55.1,-671.25 80.58,-907.07 128,-963 132.72,-968.56 138.73,-972.99 145.24,-976.51"/>
<polygon fill="black" stroke="black" points="143.79,-979.69 154.33,-980.76 146.76,-973.35 143.79,-979.69"/>
</g>
<!-- mulle&#45;concurrent -->
<g id="node6" class="node">
<title>mulle&#45;concurrent</title>
<g id="a_node6"><a xlink:href="https://github.com/mulle-concurrent/mulle-concurrent@*" xlink:title="mulle&#45;concurrent">
<polygon fill="lightgrey" stroke="black" points="267,-954 128,-954 128,-918 267,-918 267,-954"/>
<text text-anchor="middle" x="197.5" y="-932.3" font-family="Times,serif" font-size="14.00">mulle&#45;concurrent</text>
</a>
</g>
</g>
<!-- mulle&#45;core&#45;&gt;mulle&#45;concurrent -->
<g id="edge5" class="edge">
<title>mulle&#45;core&#45;&gt;mulle&#45;concurrent</title>
<path fill="none" stroke="black" d="M49.35,-603.24C57.56,-664.55 86.8,-862.04 128,-909 128.74,-909.84 129.5,-910.66 130.3,-911.45"/>
<polygon fill="black" stroke="black" points="128.15,-914.21 138.09,-917.9 132.62,-908.82 128.15,-914.21"/>
</g>
<!-- mulle&#45;container -->
<g id="node7" class="node">
<title>mulle&#45;container</title>
<g id="a_node7"><a xlink:href="https://github.com/mulle-c/mulle-container@*" xlink:title="mulle&#45;container">
<polygon fill="lightgrey" stroke="black" points="261.5,-900 133.5,-900 133.5,-864 261.5,-864 261.5,-900"/>
<text text-anchor="middle" x="197.5" y="-878.3" font-family="Times,serif" font-size="14.00">mulle&#45;container</text>
</a>
</g>
</g>
<!-- mulle&#45;core&#45;&gt;mulle&#45;container -->
<g id="edge6" class="edge">
<title>mulle&#45;core&#45;&gt;mulle&#45;container</title>
<path fill="none" stroke="black" d="M47.24,-603.04C48.85,-650.55 59.6,-780.6 128,-855 128.78,-855.85 129.59,-856.67 130.42,-857.46"/>
<polygon fill="black" stroke="black" points="128.58,-860.47 138.58,-863.96 132.94,-854.99 128.58,-860.47"/>
</g>
<!-- mulle&#45;data -->
<g id="node8" class="node">
<title>mulle&#45;data</title>
<g id="a_node8"><a xlink:href="https://github.com/mulle-c/mulle-data@*" xlink:title="mulle&#45;data">
<polygon fill="lightgrey" stroke="black" points="243.5,-846 151.5,-846 151.5,-810 243.5,-810 243.5,-846"/>
<text text-anchor="middle" x="197.5" y="-824.3" font-family="Times,serif" font-size="14.00">mulle&#45;data</text>
</a>
</g>
</g>
<!-- mulle&#45;core&#45;&gt;mulle&#45;data -->
<g id="edge7" class="edge">
<title>mulle&#45;core&#45;&gt;mulle&#45;data</title>
<path fill="none" stroke="black" d="M48.87,-603.29C53.99,-644.18 71.84,-743.89 128,-801 132.13,-805.2 137,-808.77 142.21,-811.79"/>
<polygon fill="black" stroke="black" points="140.71,-814.96 151.21,-816.38 143.89,-808.72 140.71,-814.96"/>
</g>
<!-- mulle&#45;dlfcn -->
<g id="node9" class="node">
<title>mulle&#45;dlfcn</title>
<g id="a_node9"><a xlink:href="https://github.com/mulle-core/mulle-dlfcn@*" xlink:title="mulle&#45;dlfcn">
<polygon fill="lightgrey" stroke="black" points="245.5,-792 149.5,-792 149.5,-756 245.5,-756 245.5,-792"/>
<text text-anchor="middle" x="197.5" y="-770.3" font-family="Times,serif" font-size="14.00">mulle&#45;dlfcn</text>
</a>
</g>
</g>
<!-- mulle&#45;core&#45;&gt;mulle&#45;dlfcn -->
<g id="edge8" class="edge">
<title>mulle&#45;core&#45;&gt;mulle&#45;dlfcn</title>
<path fill="none" stroke="black" d="M51.45,-603.18C60.42,-636.23 83.7,-706.44 128,-747 131.64,-750.33 135.74,-753.27 140.07,-755.86"/>
<polygon fill="black" stroke="black" points="138.76,-759.13 149.24,-760.71 142.03,-752.94 138.76,-759.13"/>
</g>
<!-- mulle&#45;fifo -->
<g id="node10" class="node">
<title>mulle&#45;fifo</title>
<g id="a_node10"><a xlink:href="https://github.com/mulle-concurrent/mulle-fifo@*" xlink:title="mulle&#45;fifo">
<polygon fill="lightgrey" stroke="black" points="239,-738 156,-738 156,-702 239,-702 239,-738"/>
<text text-anchor="middle" x="197.5" y="-716.3" font-family="Times,serif" font-size="14.00">mulle&#45;fifo</text>
</a>
</g>
</g>
<!-- mulle&#45;core&#45;&gt;mulle&#45;fifo -->
<g id="edge9" class="edge">
<title>mulle&#45;core&#45;&gt;mulle&#45;fifo</title>
<path fill="none" stroke="black" d="M56.4,-603.13C69.51,-626.8 95.38,-668.13 128,-693 133.53,-697.22 139.81,-700.86 146.26,-703.99"/>
<polygon fill="black" stroke="black" points="145.22,-707.35 155.78,-708.2 148.05,-700.95 145.22,-707.35"/>
</g>
<!-- mulle&#45;fprintf -->
<g id="node11" class="node">
<title>mulle&#45;fprintf</title>
<g id="a_node11"><a xlink:href="https://github.com/mulle-core/mulle-fprintf@*" xlink:title="mulle&#45;fprintf">
<polygon fill="lightgrey" stroke="black" points="251,-684 144,-684 144,-648 251,-648 251,-684"/>
<text text-anchor="middle" x="197.5" y="-662.3" font-family="Times,serif" font-size="14.00">mulle&#45;fprintf</text>
</a>
</g>
</g>
<!-- mulle&#45;core&#45;&gt;mulle&#45;fprintf -->
<g id="edge10" class="edge">
<title>mulle&#45;core&#45;&gt;mulle&#45;fprintf</title>
<path fill="none" stroke="black" d="M71.33,-603.21C87,-614.42 108.08,-628.59 128,-639 131.1,-640.62 134.31,-642.2 137.59,-643.73"/>
<polygon fill="black" stroke="black" points="136.36,-647.02 146.92,-647.91 139.22,-640.63 136.36,-647.02"/>
</g>
<!-- mulle&#45;http -->
<g id="node12" class="node">
<title>mulle&#45;http</title>
<g id="a_node12"><a xlink:href="https://github.com/mulle-c/mulle-http@*" xlink:title="mulle&#45;http">
<polygon fill="lightgrey" stroke="black" points="243,-630 152,-630 152,-594 243,-594 243,-630"/>
<text text-anchor="middle" x="197.5" y="-608.3" font-family="Times,serif" font-size="14.00">mulle&#45;http</text>
</a>
</g>
</g>
<!-- mulle&#45;core&#45;&gt;mulle&#45;http -->
<g id="edge11" class="edge">
<title>mulle&#45;core&#45;&gt;mulle&#45;http</title>
<path fill="none" stroke="black" d="M92.26,-593.17C107.92,-596 125.63,-599.2 141.95,-602.15"/>
<polygon fill="black" stroke="black" points="141.44,-605.61 151.91,-603.95 142.69,-598.72 141.44,-605.61"/>
</g>
<!-- mulle&#45;mmap -->
<g id="node13" class="node">
<title>mulle&#45;mmap</title>
<g id="a_node13"><a xlink:href="https://github.com/mulle-core/mulle-mmap@*" xlink:title="mulle&#45;mmap">
<polygon fill="lightgrey" stroke="black" points="250,-576 145,-576 145,-540 250,-540 250,-576"/>
<text text-anchor="middle" x="197.5" y="-554.3" font-family="Times,serif" font-size="14.00">mulle&#45;mmap</text>
</a>
</g>
</g>
<!-- mulle&#45;core&#45;&gt;mulle&#45;mmap -->
<g id="edge12" class="edge">
<title>mulle&#45;core&#45;&gt;mulle&#45;mmap</title>
<path fill="none" stroke="black" d="M92.26,-576.83C105.61,-574.42 120.45,-571.74 134.65,-569.17"/>
<polygon fill="black" stroke="black" points="135.63,-572.55 144.85,-567.33 134.38,-565.66 135.63,-572.55"/>
</g>
<!-- mulle&#45;multififo -->
<g id="node14" class="node">
<title>mulle&#45;multififo</title>
<g id="a_node14"><a xlink:href="https://github.com/mulle-concurrent/mulle-multififo@*" xlink:title="mulle&#45;multififo">
<polygon fill="lightgrey" stroke="black" points="258,-522 137,-522 137,-486 258,-486 258,-522"/>
<text text-anchor="middle" x="197.5" y="-500.3" font-family="Times,serif" font-size="14.00">mulle&#45;multififo</text>
</a>
</g>
</g>
<!-- mulle&#45;core&#45;&gt;mulle&#45;multififo -->
<g id="edge13" class="edge">
<title>mulle&#45;core&#45;&gt;mulle&#45;multififo</title>
<path fill="none" stroke="black" d="M71.33,-566.79C87,-555.58 108.08,-541.41 128,-531 131.1,-529.38 134.31,-527.8 137.59,-526.27"/>
<polygon fill="black" stroke="black" points="139.22,-529.37 146.92,-522.09 136.36,-522.98 139.22,-529.37"/>
</g>
<!-- mulle&#45;slug -->
<g id="node15" class="node">
<title>mulle&#45;slug</title>
<g id="a_node15"><a xlink:href="https://github.com/mulle-c/mulle-slug@*" xlink:title="mulle&#45;slug">
<polygon fill="lightgrey" stroke="black" points="243,-468 152,-468 152,-432 243,-432 243,-468"/>
<text text-anchor="middle" x="197.5" y="-446.3" font-family="Times,serif" font-size="14.00">mulle&#45;slug</text>
</a>
</g>
</g>
<!-- mulle&#45;core&#45;&gt;mulle&#45;slug -->
<g id="edge14" class="edge">
<title>mulle&#45;core&#45;&gt;mulle&#45;slug</title>
<path fill="none" stroke="black" d="M56.4,-566.87C69.51,-543.2 95.38,-501.87 128,-477 132.45,-473.61 137.38,-470.59 142.49,-467.91"/>
<polygon fill="black" stroke="black" points="144.31,-470.92 151.83,-463.46 141.3,-464.6 144.31,-470.92"/>
</g>
<!-- mulle&#45;sprintf -->
<g id="node16" class="node">
<title>mulle&#45;sprintf</title>
<g id="a_node16"><a xlink:href="https://github.com/mulle-core/mulle-sprintf@*" xlink:title="mulle&#45;sprintf">
<polygon fill="lightgrey" stroke="black" points="252,-414 143,-414 143,-378 252,-378 252,-414"/>
<text text-anchor="middle" x="197.5" y="-392.3" font-family="Times,serif" font-size="14.00">mulle&#45;sprintf</text>
</a>
</g>
</g>
<!-- mulle&#45;core&#45;&gt;mulle&#45;sprintf -->
<g id="edge15" class="edge">
<title>mulle&#45;core&#45;&gt;mulle&#45;sprintf</title>
<path fill="none" stroke="black" d="M51.45,-566.82C60.42,-533.77 83.7,-463.56 128,-423 129.94,-421.23 132.01,-419.56 134.17,-418"/>
<polygon fill="black" stroke="black" points="136.34,-420.78 142.94,-412.49 132.61,-414.85 136.34,-420.78"/>
</g>
<!-- mulle&#45;stacktrace -->
<g id="node17" class="node">
<title>mulle&#45;stacktrace</title>
<g id="a_node17"><a xlink:href="https://github.com/mulle-core/mulle-stacktrace@*" xlink:title="mulle&#45;stacktrace">
<polygon fill="lightgrey" stroke="black" points="265,-360 130,-360 130,-324 265,-324 265,-360"/>
<text text-anchor="middle" x="197.5" y="-338.3" font-family="Times,serif" font-size="14.00">mulle&#45;stacktrace</text>
</a>
</g>
</g>
<!-- mulle&#45;core&#45;&gt;mulle&#45;stacktrace -->
<g id="edge16" class="edge">
<title>mulle&#45;core&#45;&gt;mulle&#45;stacktrace</title>
<path fill="none" stroke="black" d="M48.87,-566.71C53.99,-525.82 71.84,-426.11 128,-369 128.93,-368.05 129.9,-367.14 130.91,-366.25"/>
<polygon fill="black" stroke="black" points="133.26,-368.86 139.16,-360.07 129.06,-363.26 133.26,-368.86"/>
</g>
<!-- mulle&#45;thread -->
<g id="node18" class="node">
<title>mulle&#45;thread</title>
<g id="a_node18"><a xlink:href="https://github.com/mulle-concurrent/mulle-thread@*" xlink:title="mulle&#45;thread">
<polygon fill="lightgrey" stroke="black" points="251.5,-306 143.5,-306 143.5,-270 251.5,-270 251.5,-306"/>
<text text-anchor="middle" x="197.5" y="-284.3" font-family="Times,serif" font-size="14.00">mulle&#45;thread</text>
</a>
</g>
</g>
<!-- mulle&#45;core&#45;&gt;mulle&#45;thread -->
<g id="edge17" class="edge">
<title>mulle&#45;core&#45;&gt;mulle&#45;thread</title>
<path fill="none" stroke="black" d="M47.24,-566.96C48.85,-519.45 59.6,-389.4 128,-315 130.03,-312.79 132.26,-310.77 134.64,-308.9"/>
<polygon fill="black" stroke="black" points="136.85,-311.64 143.22,-303.17 132.96,-305.81 136.85,-311.64"/>
</g>
<!-- mulle&#45;time -->
<g id="node19" class="node">
<title>mulle&#45;time</title>
<g id="a_node19"><a xlink:href="https://github.com/mulle-core/mulle-time@*" xlink:title="mulle&#45;time">
<polygon fill="lightgrey" stroke="black" points="244,-252 151,-252 151,-216 244,-216 244,-252"/>
<text text-anchor="middle" x="197.5" y="-230.3" font-family="Times,serif" font-size="14.00">mulle&#45;time</text>
</a>
</g>
</g>
<!-- mulle&#45;core&#45;&gt;mulle&#45;time -->
<g id="edge18" class="edge">
<title>mulle&#45;core&#45;&gt;mulle&#45;time</title>
<path fill="none" stroke="black" d="M49.35,-566.76C57.56,-505.45 86.8,-307.96 128,-261 131.94,-256.51 136.73,-252.75 141.92,-249.62"/>
<polygon fill="black" stroke="black" points="143.71,-252.63 150.97,-244.91 140.48,-246.43 143.71,-252.63"/>
</g>
<!-- mulle&#45;unicode -->
<g id="node20" class="node">
<title>mulle&#45;unicode</title>
<g id="a_node20"><a xlink:href="https://github.com/mulle-c/mulle-unicode@*" xlink:title="mulle&#45;unicode">
<polygon fill="lightgrey" stroke="black" points="255.5,-198 139.5,-198 139.5,-162 255.5,-162 255.5,-198"/>
<text text-anchor="middle" x="197.5" y="-176.3" font-family="Times,serif" font-size="14.00">mulle&#45;unicode</text>
</a>
</g>
</g>
<!-- mulle&#45;core&#45;&gt;mulle&#45;unicode -->
<g id="edge19" class="edge">
<title>mulle&#45;core&#45;&gt;mulle&#45;unicode</title>
<path fill="none" stroke="black" d="M48.65,-566.64C55.1,-498.75 80.58,-262.93 128,-207 129.01,-205.81 130.07,-204.68 131.19,-203.59"/>
<polygon fill="black" stroke="black" points="133.64,-206.11 139.23,-197.11 129.25,-200.66 133.64,-206.11"/>
</g>
<!-- mulle&#45;url -->
<g id="node21" class="node">
<title>mulle&#45;url</title>
<g id="a_node21"><a xlink:href="https://github.com/mulle-c/mulle-url@*" xlink:title="mulle&#45;url">
<polygon fill="lightgrey" stroke="black" points="238,-144 157,-144 157,-108 238,-108 238,-144"/>
<text text-anchor="middle" x="197.5" y="-122.3" font-family="Times,serif" font-size="14.00">mulle&#45;url</text>
</a>
</g>
</g>
<!-- mulle&#45;core&#45;&gt;mulle&#45;url -->
<g id="edge20" class="edge">
<title>mulle&#45;core&#45;&gt;mulle&#45;url</title>
<path fill="none" stroke="black" d="M48.12,-566.63C52.95,-492.73 74.31,-218.01 128,-153 133.15,-146.76 139.94,-141.96 147.25,-138.26"/>
<polygon fill="black" stroke="black" points="148.92,-141.35 156.69,-134.15 146.12,-134.93 148.92,-141.35"/>
</g>
<!-- mulle&#45;utf -->
<g id="node22" class="node">
<title>mulle&#45;utf</title>
<g id="a_node22"><a xlink:href="https://github.com/mulle-c/mulle-utf@*" xlink:title="mulle&#45;utf">
<polygon fill="lightgrey" stroke="black" points="238,-90 157,-90 157,-54 238,-54 238,-90"/>
<text text-anchor="middle" x="197.5" y="-68.3" font-family="Times,serif" font-size="14.00">mulle&#45;utf</text>
</a>
</g>
</g>
<!-- mulle&#45;core&#45;&gt;mulle&#45;utf -->
<g id="edge21" class="edge">
<title>mulle&#45;core&#45;&gt;mulle&#45;utf</title>
<path fill="none" stroke="black" d="M47.69,-566.82C51.03,-487.6 67.94,-173.23 128,-99 133.14,-92.64 140,-87.77 147.38,-84.05"/>
<polygon fill="black" stroke="black" points="149.14,-87.1 156.93,-79.92 146.36,-80.68 149.14,-87.1"/>
</g>
<!-- mulle&#45;vararg -->
<g id="node23" class="node">
<title>mulle&#45;vararg</title>
<g id="a_node23"><a xlink:href="https://github.com/mulle-c/mulle-vararg@*" xlink:title="mulle&#45;vararg">
<polygon fill="lightgrey" stroke="black" points="251.5,-36 143.5,-36 143.5,0 251.5,0 251.5,-36"/>
<text text-anchor="middle" x="197.5" y="-14.3" font-family="Times,serif" font-size="14.00">mulle&#45;vararg</text>
</a>
</g>
</g>
<!-- mulle&#45;core&#45;&gt;mulle&#45;vararg -->
<g id="edge22" class="edge">
<title>mulle&#45;core&#45;&gt;mulle&#45;vararg</title>
<path fill="none" stroke="black" d="M47.35,-566.83C49.35,-482.35 61.6,-128.45 128,-45 130.07,-42.4 132.42,-40.05 134.99,-37.92"/>
<polygon fill="black" stroke="black" points="137,-40.78 143.22,-32.2 133.01,-35.04 137,-40.78"/>
</g>
</g>
</svg>
