<?xml version="1.0" encoding="UTF-8" standalone="no"?>
<!DOCTYPE svg PUBLIC "-//W3C//DTD SVG 1.1//EN"
 "http://www.w3.org/Graphics/SVG/1.1/DTD/svg11.dtd">
<!-- Generated by graphviz version 2.43.0 (0)
 -->
<!-- Title: sourcetree Pages: 1 -->
<svg width="275pt" height="1448pt"
 viewBox="0.00 0.00 275.00 1448.00" xmlns="http://www.w3.org/2000/svg" xmlns:xlink="http://www.w3.org/1999/xlink">
<g id="graph0" class="graph" transform="scale(1 1) rotate(0) translate(4 1444)">
<title>sourcetree</title>
<polygon fill="white" stroke="transparent" points="-4,4 -4,-1444 271,-1444 271,4 -4,4"/>
<!-- mulle&#45;core -->
<g id="node1" class="node">
<title>mulle&#45;core</title>
<polygon fill="yellow" stroke="black" points="92,-738 0,-738 0,-702 92,-702 92,-738"/>
<text text-anchor="middle" x="46" y="-716.3" font-family="Times,serif" font-size="14.00">mulle&#45;core</text>
</g>
<!-- mintomic -->
<g id="node2" class="node">
<title>mintomic</title>
<g id="a_node2"><a xlink:href="https://github.com/mulle-concurrent/mintomic" xlink:title="mintomic">
<polygon fill="lightgrey" stroke="black" points="239,-1440 156,-1440 156,-1404 239,-1404 239,-1440"/>
<text text-anchor="middle" x="197.5" y="-1418.3" font-family="Times,serif" font-size="14.00">mintomic</text>
</a>
</g>
</g>
<!-- mulle&#45;core&#45;&gt;mintomic -->
<g id="edge1" class="edge">
<title>mulle&#45;core&#45;&gt;mintomic</title>
<path fill="none" stroke="black" d="M46.75,-738.32C45.76,-835.29 45.69,-1288.37 128,-1395 132.89,-1401.33 139.48,-1406.18 146.65,-1409.9"/>
<polygon fill="black" stroke="black" points="145.4,-1413.17 155.96,-1414.02 148.23,-1406.77 145.4,-1413.17"/>
</g>
<!-- mulle&#45;aba -->
<g id="node3" class="node">
<title>mulle&#45;aba</title>
<g id="a_node3"><a xlink:href="https://github.com/mulle-concurrent/mulle-aba@*" xlink:title="mulle&#45;aba">
<polygon fill="lightgrey" stroke="black" points="240.5,-1386 154.5,-1386 154.5,-1350 240.5,-1350 240.5,-1386"/>
<text text-anchor="middle" x="197.5" y="-1364.3" font-family="Times,serif" font-size="14.00">mulle&#45;aba</text>
</a>
</g>
</g>
<!-- mulle&#45;core&#45;&gt;mulle&#45;aba -->
<g id="edge2" class="edge">
<title>mulle&#45;core&#45;&gt;mulle&#45;aba</title>
<path fill="none" stroke="black" d="M46.96,-738.05C47.1,-829.77 52.01,-1243.6 128,-1341 132.54,-1346.82 138.52,-1351.39 145.05,-1354.97"/>
<polygon fill="black" stroke="black" points="143.69,-1358.2 154.23,-1359.28 146.66,-1351.86 143.69,-1358.2"/>
</g>
<!-- mulle&#45;allocator -->
<g id="node4" class="node">
<title>mulle&#45;allocator</title>
<g id="a_node4"><a xlink:href="https://github.com/mulle-c/mulle-allocator@*" xlink:title="mulle&#45;allocator">
<polygon fill="lightgrey" stroke="black" points="259,-1332 136,-1332 136,-1296 259,-1296 259,-1332"/>
<text text-anchor="middle" x="197.5" y="-1310.3" font-family="Times,serif" font-size="14.00">mulle&#45;allocator</text>
</a>
</g>
</g>
<!-- mulle&#45;core&#45;&gt;mulle&#45;allocator -->
<g id="edge3" class="edge">
<title>mulle&#45;core&#45;&gt;mulle&#45;allocator</title>
<path fill="none" stroke="black" d="M47.21,-738.19C48.57,-825.27 58.42,-1198.93 128,-1287 128.59,-1287.75 129.2,-1288.47 129.84,-1289.18"/>
<polygon fill="black" stroke="black" points="127.62,-1291.89 137.38,-1296 132.31,-1286.69 127.62,-1291.89"/>
</g>
<!-- mulle&#45;buffer -->
<g id="node5" class="node">
<title>mulle&#45;buffer</title>
<g id="a_node5"><a xlink:href="https://github.com/mulle-c/mulle-buffer@*" xlink:title="mulle&#45;buffer">
<polygon fill="lightgrey" stroke="black" points="249.5,-1278 145.5,-1278 145.5,-1242 249.5,-1242 249.5,-1278"/>
<text text-anchor="middle" x="197.5" y="-1256.3" font-family="Times,serif" font-size="14.00">mulle&#45;buffer</text>
</a>
</g>
</g>
<!-- mulle&#45;core&#45;&gt;mulle&#45;buffer -->
<g id="edge4" class="edge">
<title>mulle&#45;core&#45;&gt;mulle&#45;buffer</title>
<path fill="none" stroke="black" d="M47.51,-738.08C50.16,-819.79 64.75,-1154.13 128,-1233 130.54,-1236.16 133.5,-1238.96 136.74,-1241.42"/>
<polygon fill="black" stroke="black" points="134.97,-1244.45 145.28,-1246.91 138.76,-1238.56 134.97,-1244.45"/>
</g>
<!-- mulle&#45;c11 -->
<g id="node6" class="node">
<title>mulle&#45;c11</title>
<g id="a_node6"><a xlink:href="https://github.com/mulle-c/mulle-c11@*" xlink:title="mulle&#45;c11">
<polygon fill="lightgrey" stroke="black" points="240.5,-1224 154.5,-1224 154.5,-1188 240.5,-1188 240.5,-1224"/>
<text text-anchor="middle" x="197.5" y="-1202.3" font-family="Times,serif" font-size="14.00">mulle&#45;c11</text>
</a>
</g>
</g>
<!-- mulle&#45;core&#45;&gt;mulle&#45;c11 -->
<g id="edge5" class="edge">
<title>mulle&#45;core&#45;&gt;mulle&#45;c11</title>
<path fill="none" stroke="black" d="M47.89,-738.2C51.95,-814.69 71.11,-1109.36 128,-1179 132.67,-1184.72 138.72,-1189.23 145.29,-1192.79"/>
<polygon fill="black" stroke="black" points="143.94,-1196.02 154.49,-1197.07 146.9,-1189.68 143.94,-1196.02"/>
</g>
<!-- mulle&#45;concurrent -->
<g id="node7" class="node">
<title>mulle&#45;concurrent</title>
<g id="a_node7"><a xlink:href="https://github.com/mulle-concurrent/mulle-concurrent@*" xlink:title="mulle&#45;concurrent">
<polygon fill="lightgrey" stroke="black" points="267,-1170 128,-1170 128,-1134 267,-1134 267,-1170"/>
<text text-anchor="middle" x="197.5" y="-1148.3" font-family="Times,serif" font-size="14.00">mulle&#45;concurrent</text>
</a>
</g>
</g>
<!-- mulle&#45;core&#45;&gt;mulle&#45;concurrent -->
<g id="edge6" class="edge">
<title>mulle&#45;core&#45;&gt;mulle&#45;concurrent</title>
<path fill="none" stroke="black" d="M48.35,-738.18C53.95,-808.88 77.41,-1064.49 128,-1125 128.61,-1125.73 129.24,-1126.44 129.89,-1127.13"/>
<polygon fill="black" stroke="black" points="127.75,-1129.9 137.59,-1133.82 132.34,-1124.62 127.75,-1129.9"/>
</g>
<!-- mulle&#45;container -->
<g id="node8" class="node">
<title>mulle&#45;container</title>
<g id="a_node8"><a xlink:href="https://github.com/mulle-c/mulle-container@*" xlink:title="mulle&#45;container">
<polygon fill="lightgrey" stroke="black" points="261.5,-1116 133.5,-1116 133.5,-1080 261.5,-1080 261.5,-1116"/>
<text text-anchor="middle" x="197.5" y="-1094.3" font-family="Times,serif" font-size="14.00">mulle&#45;container</text>
</a>
</g>
</g>
<!-- mulle&#45;core&#45;&gt;mulle&#45;container -->
<g id="edge7" class="edge">
<title>mulle&#45;core&#45;&gt;mulle&#45;container</title>
<path fill="none" stroke="black" d="M48.98,-738.38C56.31,-803.13 83.72,-1019.59 128,-1071 128.73,-1071.85 129.49,-1072.67 130.28,-1073.46"/>
<polygon fill="black" stroke="black" points="128.11,-1076.21 138.02,-1079.95 132.6,-1070.85 128.11,-1076.21"/>
</g>
<!-- mulle&#45;data -->
<g id="node9" class="node">
<title>mulle&#45;data</title>
<g id="a_node9"><a xlink:href="https://github.com/mulle-c/mulle-data@*" xlink:title="mulle&#45;data">
<polygon fill="lightgrey" stroke="black" points="243.5,-1062 151.5,-1062 151.5,-1026 243.5,-1026 243.5,-1062"/>
<text text-anchor="middle" x="197.5" y="-1040.3" font-family="Times,serif" font-size="14.00">mulle&#45;data</text>
</a>
</g>
</g>
<!-- mulle&#45;core&#45;&gt;mulle&#45;data -->
<g id="edge8" class="edge">
<title>mulle&#45;core&#45;&gt;mulle&#45;data</title>
<path fill="none" stroke="black" d="M46.65,-738.31C46.67,-789.2 53.62,-934.02 128,-1017 132.04,-1021.51 136.94,-1025.28 142.23,-1028.42"/>
<polygon fill="black" stroke="black" points="140.94,-1031.69 151.44,-1033.14 144.14,-1025.47 140.94,-1031.69"/>
</g>
<!-- mulle&#45;dlfcn -->
<g id="node10" class="node">
<title>mulle&#45;dlfcn</title>
<g id="a_node10"><a xlink:href="https://github.com/mulle-core/mulle-dlfcn@*" xlink:title="mulle&#45;dlfcn">
<polygon fill="lightgrey" stroke="black" points="245.5,-1008 149.5,-1008 149.5,-972 245.5,-972 245.5,-1008"/>
<text text-anchor="middle" x="197.5" y="-986.3" font-family="Times,serif" font-size="14.00">mulle&#45;dlfcn</text>
</a>
</g>
</g>
<!-- mulle&#45;core&#45;&gt;mulle&#45;dlfcn -->
<g id="edge9" class="edge">
<title>mulle&#45;core&#45;&gt;mulle&#45;dlfcn</title>
<path fill="none" stroke="black" d="M47.97,-738.18C51.28,-782.51 65.75,-897.31 128,-963 131.59,-966.79 135.78,-970.05 140.28,-972.87"/>
<polygon fill="black" stroke="black" points="138.8,-976.05 149.25,-977.75 142.14,-969.9 138.8,-976.05"/>
</g>
<!-- mulle&#45;fifo -->
<g id="node11" class="node">
<title>mulle&#45;fifo</title>
<g id="a_node11"><a xlink:href="https://github.com/mulle-concurrent/mulle-fifo@*" xlink:title="mulle&#45;fifo">
<polygon fill="lightgrey" stroke="black" points="239,-954 156,-954 156,-918 239,-918 239,-954"/>
<text text-anchor="middle" x="197.5" y="-932.3" font-family="Times,serif" font-size="14.00">mulle&#45;fifo</text>
</a>
</g>
</g>
<!-- mulle&#45;core&#45;&gt;mulle&#45;fifo -->
<g id="edge10" class="edge">
<title>mulle&#45;core&#45;&gt;mulle&#45;fifo</title>
<path fill="none" stroke="black" d="M49.99,-738.25C56.99,-775.36 77.8,-860.26 128,-909 133.3,-914.14 139.69,-918.34 146.41,-921.75"/>
<polygon fill="black" stroke="black" points="145.16,-925.03 155.72,-925.94 148.04,-918.65 145.16,-925.03"/>
</g>
<!-- mulle&#45;fprintf -->
<g id="node12" class="node">
<title>mulle&#45;fprintf</title>
<g id="a_node12"><a xlink:href="https://github.com/mulle-core/mulle-fprintf@*" xlink:title="mulle&#45;fprintf">
<polygon fill="lightgrey" stroke="black" points="251,-900 144,-900 144,-864 251,-864 251,-900"/>
<text text-anchor="middle" x="197.5" y="-878.3" font-family="Times,serif" font-size="14.00">mulle&#45;fprintf</text>
</a>
</g>
</g>
<!-- mulle&#45;core&#45;&gt;mulle&#45;fprintf -->
<g id="edge11" class="edge">
<title>mulle&#45;core&#45;&gt;mulle&#45;fprintf</title>
<path fill="none" stroke="black" d="M53.51,-738.31C64.57,-766.97 89.63,-822.49 128,-855 130.24,-856.9 132.63,-858.67 135.12,-860.33"/>
<polygon fill="black" stroke="black" points="133.55,-863.47 143.94,-865.53 137.11,-857.44 133.55,-863.47"/>
</g>
<!-- mulle&#45;http -->
<g id="node13" class="node">
<title>mulle&#45;http</title>
<g id="a_node13"><a xlink:href="https://github.com/mulle-c/mulle-http@*" xlink:title="mulle&#45;http">
<polygon fill="lightgrey" stroke="black" points="243,-846 152,-846 152,-810 243,-810 243,-846"/>
<text text-anchor="middle" x="197.5" y="-824.3" font-family="Times,serif" font-size="14.00">mulle&#45;http</text>
</a>
</g>
</g>
<!-- mulle&#45;core&#45;&gt;mulle&#45;http -->
<g id="edge12" class="edge">
<title>mulle&#45;core&#45;&gt;mulle&#45;http</title>
<path fill="none" stroke="black" d="M61.4,-738.27C76.4,-756.27 101.39,-783.55 128,-801 132.54,-803.98 137.47,-806.71 142.52,-809.2"/>
<polygon fill="black" stroke="black" points="141.14,-812.42 151.69,-813.42 144.06,-806.06 141.14,-812.42"/>
</g>
<!-- mulle&#45;linkedlist -->
<g id="node14" class="node">
<title>mulle&#45;linkedlist</title>
<g id="a_node14"><a xlink:href="https://github.com/mulle-concurrent/mulle-linkedlist@*" xlink:title="mulle&#45;linkedlist">
<polygon fill="lightgrey" stroke="black" points="261,-792 134,-792 134,-756 261,-756 261,-792"/>
<text text-anchor="middle" x="197.5" y="-770.3" font-family="Times,serif" font-size="14.00">mulle&#45;linkedlist</text>
</a>
</g>
</g>
<!-- mulle&#45;core&#45;&gt;mulle&#45;linkedlist -->
<g id="edge13" class="edge">
<title>mulle&#45;core&#45;&gt;mulle&#45;linkedlist</title>
<path fill="none" stroke="black" d="M92.26,-736.35C106.29,-741.42 121.97,-747.08 136.82,-752.44"/>
<polygon fill="black" stroke="black" points="135.84,-755.81 146.44,-755.92 138.22,-749.23 135.84,-755.81"/>
</g>
<!-- mulle&#45;mmap -->
<g id="node15" class="node">
<title>mulle&#45;mmap</title>
<g id="a_node15"><a xlink:href="https://github.com/mulle-core/mulle-mmap@*" xlink:title="mulle&#45;mmap">
<polygon fill="lightgrey" stroke="black" points="250,-738 145,-738 145,-702 250,-702 250,-738"/>
<text text-anchor="middle" x="197.5" y="-716.3" font-family="Times,serif" font-size="14.00">mulle&#45;mmap</text>
</a>
</g>
</g>
<!-- mulle&#45;core&#45;&gt;mulle&#45;mmap -->
<g id="edge14" class="edge">
<title>mulle&#45;core&#45;&gt;mulle&#45;mmap</title>
<path fill="none" stroke="black" d="M92.26,-720C105.61,-720 120.45,-720 134.65,-720"/>
<polygon fill="black" stroke="black" points="134.85,-723.5 144.85,-720 134.85,-716.5 134.85,-723.5"/>
</g>
<!-- mulle&#45;multififo -->
<g id="node16" class="node">
<title>mulle&#45;multififo</title>
<g id="a_node16"><a xlink:href="https://github.com/mulle-concurrent/mulle-multififo@*" xlink:title="mulle&#45;multififo">
<polygon fill="lightgrey" stroke="black" points="258,-684 137,-684 137,-648 258,-648 258,-684"/>
<text text-anchor="middle" x="197.5" y="-662.3" font-family="Times,serif" font-size="14.00">mulle&#45;multififo</text>
</a>
</g>
</g>
<!-- mulle&#45;core&#45;&gt;mulle&#45;multififo -->
<g id="edge15" class="edge">
<title>mulle&#45;core&#45;&gt;mulle&#45;multififo</title>
<path fill="none" stroke="black" d="M92.26,-703.65C106.29,-698.58 121.97,-692.92 136.82,-687.56"/>
<polygon fill="black" stroke="black" points="138.22,-690.77 146.44,-684.08 135.84,-684.19 138.22,-690.77"/>
</g>
<!-- mulle&#45;rbtree -->
<g id="node17" class="node">
<title>mulle&#45;rbtree</title>
<g id="a_node17"><a xlink:href="https://github.com/mulle-c/mulle-rbtree@*" xlink:title="mulle&#45;rbtree">
<polygon fill="lightgrey" stroke="black" points="250.5,-630 144.5,-630 144.5,-594 250.5,-594 250.5,-630"/>
<text text-anchor="middle" x="197.5" y="-608.3" font-family="Times,serif" font-size="14.00">mulle&#45;rbtree</text>
</a>
</g>
</g>
<!-- mulle&#45;core&#45;&gt;mulle&#45;rbtree -->
<g id="edge16" class="edge">
<title>mulle&#45;core&#45;&gt;mulle&#45;rbtree</title>
<path fill="none" stroke="black" d="M61.4,-701.73C76.4,-683.73 101.39,-656.45 128,-639 130.41,-637.42 132.92,-635.91 135.5,-634.47"/>
<polygon fill="black" stroke="black" points="137.2,-637.54 144.48,-629.84 133.99,-631.31 137.2,-637.54"/>
</g>
<!-- mulle&#45;regex -->
<g id="node18" class="node">
<title>mulle&#45;regex</title>
<g id="a_node18"><a xlink:href="https://github.com/mulle-c/mulle-regex@" xlink:title="mulle&#45;regex">
<polygon fill="lightgrey" stroke="black" points="248,-576 147,-576 147,-540 248,-540 248,-576"/>
<text text-anchor="middle" x="197.5" y="-554.3" font-family="Times,serif" font-size="14.00">mulle&#45;regex</text>
</a>
</g>
</g>
<!-- mulle&#45;core&#45;&gt;mulle&#45;regex -->
<g id="edge17" class="edge">
<title>mulle&#45;core&#45;&gt;mulle&#45;regex</title>
<path fill="none" stroke="black" d="M53.51,-701.69C64.57,-673.03 89.63,-617.51 128,-585 131.04,-582.42 134.36,-580.08 137.83,-577.94"/>
<polygon fill="black" stroke="black" points="139.67,-580.92 146.75,-573.04 136.3,-574.78 139.67,-580.92"/>
</g>
<!-- mulle&#45;slug -->
<g id="node19" class="node">
<title>mulle&#45;slug</title>
<g id="a_node19"><a xlink:href="https://github.com/mulle-c/mulle-slug@*" xlink:title="mulle&#45;slug">
<polygon fill="lightgrey" stroke="black" points="243,-522 152,-522 152,-486 243,-486 243,-522"/>
<text text-anchor="middle" x="197.5" y="-500.3" font-family="Times,serif" font-size="14.00">mulle&#45;slug</text>
</a>
</g>
</g>
<!-- mulle&#45;core&#45;&gt;mulle&#45;slug -->
<g id="edge18" class="edge">
<title>mulle&#45;core&#45;&gt;mulle&#45;slug</title>
<path fill="none" stroke="black" d="M49.99,-701.75C56.99,-664.64 77.8,-579.74 128,-531 132.29,-526.84 137.3,-523.29 142.62,-520.28"/>
<polygon fill="black" stroke="black" points="144.41,-523.3 151.8,-515.7 141.29,-517.03 144.41,-523.3"/>
</g>
<!-- mulle&#45;sprintf -->
<g id="node20" class="node">
<title>mulle&#45;sprintf</title>
<g id="a_node20"><a xlink:href="https://github.com/mulle-core/mulle-sprintf@*" xlink:title="mulle&#45;sprintf">
<polygon fill="lightgrey" stroke="black" points="252,-468 143,-468 143,-432 252,-432 252,-468"/>
<text text-anchor="middle" x="197.5" y="-446.3" font-family="Times,serif" font-size="14.00">mulle&#45;sprintf</text>
</a>
</g>
</g>
<!-- mulle&#45;core&#45;&gt;mulle&#45;sprintf -->
<g id="edge19" class="edge">
<title>mulle&#45;core&#45;&gt;mulle&#45;sprintf</title>
<path fill="none" stroke="black" d="M47.97,-701.82C51.28,-657.49 65.75,-542.69 128,-477 129.85,-475.05 131.85,-473.24 133.98,-471.56"/>
<polygon fill="black" stroke="black" points="136.35,-474.18 142.68,-465.69 132.43,-468.38 136.35,-474.18"/>
</g>
<!-- mulle&#45;stacktrace -->
<g id="node21" class="node">
<title>mulle&#45;stacktrace</title>
<g id="a_node21"><a xlink:href="https://github.com/mulle-core/mulle-stacktrace@*" xlink:title="mulle&#45;stacktrace">
<polygon fill="lightgrey" stroke="black" points="265,-414 130,-414 130,-378 265,-378 265,-414"/>
<text text-anchor="middle" x="197.5" y="-392.3" font-family="Times,serif" font-size="14.00">mulle&#45;stacktrace</text>
</a>
</g>
</g>
<!-- mulle&#45;core&#45;&gt;mulle&#45;stacktrace -->
<g id="edge20" class="edge">
<title>mulle&#45;core&#45;&gt;mulle&#45;stacktrace</title>
<path fill="none" stroke="black" d="M46.65,-701.69C46.67,-650.8 53.62,-505.98 128,-423 128.75,-422.17 129.52,-421.36 130.32,-420.58"/>
<polygon fill="black" stroke="black" points="132.63,-423.21 138.17,-414.18 128.21,-417.79 132.63,-423.21"/>
</g>
<!-- mulle&#45;storage -->
<g id="node22" class="node">
<title>mulle&#45;storage</title>
<g id="a_node22"><a xlink:href="https://github.com/mulle-c/mulle-storage@*" xlink:title="mulle&#45;storage">
<polygon fill="lightgrey" stroke="black" points="255,-360 140,-360 140,-324 255,-324 255,-360"/>
<text text-anchor="middle" x="197.5" y="-338.3" font-family="Times,serif" font-size="14.00">mulle&#45;storage</text>
</a>
</g>
</g>
<!-- mulle&#45;core&#45;&gt;mulle&#45;storage -->
<g id="edge21" class="edge">
<title>mulle&#45;core&#45;&gt;mulle&#45;storage</title>
<path fill="none" stroke="black" d="M48.98,-701.62C56.31,-636.87 83.72,-420.41 128,-369 129.18,-367.64 130.43,-366.34 131.75,-365.11"/>
<polygon fill="black" stroke="black" points="134.19,-367.64 139.95,-358.74 129.9,-362.11 134.19,-367.64"/>
</g>
<!-- mulle&#45;thread -->
<g id="node23" class="node">
<title>mulle&#45;thread</title>
<g id="a_node23"><a xlink:href="https://github.com/mulle-concurrent/mulle-thread@*" xlink:title="mulle&#45;thread">
<polygon fill="lightgrey" stroke="black" points="251.5,-306 143.5,-306 143.5,-270 251.5,-270 251.5,-306"/>
<text text-anchor="middle" x="197.5" y="-284.3" font-family="Times,serif" font-size="14.00">mulle&#45;thread</text>
</a>
</g>
</g>
<!-- mulle&#45;core&#45;&gt;mulle&#45;thread -->
<g id="edge22" class="edge">
<title>mulle&#45;core&#45;&gt;mulle&#45;thread</title>
<path fill="none" stroke="black" d="M48.35,-701.82C53.95,-631.12 77.41,-375.51 128,-315 130.13,-312.45 132.54,-310.14 135.14,-308.05"/>
<polygon fill="black" stroke="black" points="137.15,-310.91 143.45,-302.4 133.22,-305.12 137.15,-310.91"/>
</g>
<!-- mulle&#45;time -->
<g id="node24" class="node">
<title>mulle&#45;time</title>
<g id="a_node24"><a xlink:href="https://github.com/mulle-core/mulle-time@*" xlink:title="mulle&#45;time">
<polygon fill="lightgrey" stroke="black" points="244,-252 151,-252 151,-216 244,-216 244,-252"/>
<text text-anchor="middle" x="197.5" y="-230.3" font-family="Times,serif" font-size="14.00">mulle&#45;time</text>
</a>
</g>
</g>
<!-- mulle&#45;core&#45;&gt;mulle&#45;time -->
<g id="edge23" class="edge">
<title>mulle&#45;core&#45;&gt;mulle&#45;time</title>
<path fill="none" stroke="black" d="M47.89,-701.8C51.95,-625.31 71.11,-330.64 128,-261 131.83,-256.31 136.6,-252.43 141.81,-249.22"/>
<polygon fill="black" stroke="black" points="143.71,-252.18 150.94,-244.43 140.46,-245.98 143.71,-252.18"/>
</g>
<!-- mulle&#45;unicode -->
<g id="node25" class="node">
<title>mulle&#45;unicode</title>
<g id="a_node25"><a xlink:href="https://github.com/mulle-c/mulle-unicode@*" xlink:title="mulle&#45;unicode">
<polygon fill="lightgrey" stroke="black" points="255.5,-198 139.5,-198 139.5,-162 255.5,-162 255.5,-198"/>
<text text-anchor="middle" x="197.5" y="-176.3" font-family="Times,serif" font-size="14.00">mulle&#45;unicode</text>
</a>
</g>
</g>
<!-- mulle&#45;core&#45;&gt;mulle&#45;unicode -->
<g id="edge24" class="edge">
<title>mulle&#45;core&#45;&gt;mulle&#45;unicode</title>
<path fill="none" stroke="black" d="M47.51,-701.92C50.16,-620.21 64.75,-285.87 128,-207 129.1,-205.63 130.28,-204.33 131.53,-203.09"/>
<polygon fill="black" stroke="black" points="133.8,-205.75 139.33,-196.71 129.37,-200.33 133.8,-205.75"/>
</g>
<!-- mulle&#45;url -->
<g id="node26" class="node">
<title>mulle&#45;url</title>
<g id="a_node26"><a xlink:href="https://github.com/mulle-c/mulle-url@*" xlink:title="mulle&#45;url">
<polygon fill="lightgrey" stroke="black" points="238,-144 157,-144 157,-108 238,-108 238,-144"/>
<text text-anchor="middle" x="197.5" y="-122.3" font-family="Times,serif" font-size="14.00">mulle&#45;url</text>
</a>
</g>
</g>
<!-- mulle&#45;core&#45;&gt;mulle&#45;url -->
<g id="edge25" class="edge">
<title>mulle&#45;core&#45;&gt;mulle&#45;url</title>
<path fill="none" stroke="black" d="M47.21,-701.81C48.57,-614.73 58.42,-241.07 128,-153 133.07,-146.58 139.89,-141.69 147.26,-137.95"/>
<polygon fill="black" stroke="black" points="149.02,-141 156.8,-133.81 146.23,-134.58 149.02,-141"/>
</g>
<!-- mulle&#45;utf -->
<g id="node27" class="node">
<title>mulle&#45;utf</title>
<g id="a_node27"><a xlink:href="https://github.com/mulle-c/mulle-utf@*" xlink:title="mulle&#45;utf">
<polygon fill="lightgrey" stroke="black" points="238,-90 157,-90 157,-54 238,-54 238,-90"/>
<text text-anchor="middle" x="197.5" y="-68.3" font-family="Times,serif" font-size="14.00">mulle&#45;utf</text>
</a>
</g>
</g>
<!-- mulle&#45;core&#45;&gt;mulle&#45;utf -->
<g id="edge26" class="edge">
<title>mulle&#45;core&#45;&gt;mulle&#45;utf</title>
<path fill="none" stroke="black" d="M46.96,-701.95C47.1,-610.23 52.01,-196.4 128,-99 133.03,-92.55 139.83,-87.64 147.19,-83.9"/>
<polygon fill="black" stroke="black" points="148.95,-86.95 156.73,-79.76 146.16,-80.53 148.95,-86.95"/>
</g>
<!-- mulle&#45;vararg -->
<g id="node28" class="node">
<title>mulle&#45;vararg</title>
<g id="a_node28"><a xlink:href="https://github.com/mulle-c/mulle-vararg@*" xlink:title="mulle&#45;vararg">
<polygon fill="lightgrey" stroke="black" points="251.5,-36 143.5,-36 143.5,0 251.5,0 251.5,-36"/>
<text text-anchor="middle" x="197.5" y="-14.3" font-family="Times,serif" font-size="14.00">mulle&#45;vararg</text>
</a>
</g>
</g>
<!-- mulle&#45;core&#45;&gt;mulle&#45;vararg -->
<g id="edge27" class="edge">
<title>mulle&#45;core&#45;&gt;mulle&#45;vararg</title>
<path fill="none" stroke="black" d="M46.75,-701.68C45.76,-604.71 45.69,-151.63 128,-45 130.07,-42.32 132.45,-39.9 135.04,-37.73"/>
<polygon fill="black" stroke="black" points="137.21,-40.48 143.4,-31.89 133.2,-34.74 137.21,-40.48"/>
</g>
</g>
</svg>
