<?xml version="1.0" encoding="UTF-8" standalone="no"?>
<!DOCTYPE svg PUBLIC "-//W3C//DTD SVG 1.1//EN"
 "http://www.w3.org/Graphics/SVG/1.1/DTD/svg11.dtd">
<!-- Generated by graphviz version 2.43.0 (0)
 -->
<!-- Title: sourcetree Pages: 1 -->
<svg width="313pt" height="1502pt"
 viewBox="0.00 0.00 313.00 1502.00" xmlns="http://www.w3.org/2000/svg" xmlns:xlink="http://www.w3.org/1999/xlink">
<g id="graph0" class="graph" transform="scale(1 1) rotate(0) translate(4 1498)">
<title>sourcetree</title>
<polygon fill="white" stroke="transparent" points="-4,4 -4,-1498 309,-1498 309,4 -4,4"/>
<!-- mulle&#45;core -->
<g id="node1" class="node">
<title>mulle&#45;core</title>
<polygon fill="yellow" stroke="black" points="92,-765 0,-765 0,-729 92,-729 92,-765"/>
<text text-anchor="middle" x="46" y="-743.3" font-family="Times,serif" font-size="14.00">mulle&#45;core</text>
</g>
<!-- mintomic -->
<g id="node2" class="node">
<title>mintomic</title>
<g id="a_node2"><a xlink:href="https://github.com/mulle-concurrent/mintomic" xlink:title="mintomic">
<polygon fill="lightgrey" stroke="black" points="258,-1494 175,-1494 175,-1458 258,-1458 258,-1494"/>
<text text-anchor="middle" x="216.5" y="-1472.3" font-family="Times,serif" font-size="14.00">mintomic</text>
</a>
</g>
</g>
<!-- mulle&#45;core&#45;&gt;mintomic -->
<g id="edge1" class="edge">
<title>mulle&#45;core&#45;&gt;mintomic</title>
<path fill="none" stroke="black" d="M47.92,-765.23C53.4,-870.19 82.87,-1394.68 128,-1449 137.24,-1460.12 150.95,-1466.75 164.8,-1470.67"/>
<polygon fill="black" stroke="black" points="164.3,-1474.15 174.84,-1473.07 165.93,-1467.34 164.3,-1474.15"/>
</g>
<!-- mulle&#45;aba -->
<g id="node3" class="node">
<title>mulle&#45;aba</title>
<g id="a_node3"><a xlink:href="https://github.com/mulle-concurrent/mulle-aba@*" xlink:title="mulle&#45;aba">
<polygon fill="lightgrey" stroke="black" points="259.5,-1440 173.5,-1440 173.5,-1404 259.5,-1404 259.5,-1440"/>
<text text-anchor="middle" x="216.5" y="-1418.3" font-family="Times,serif" font-size="14.00">mulle&#45;aba</text>
</a>
</g>
</g>
<!-- mulle&#45;core&#45;&gt;mulle&#45;aba -->
<g id="edge2" class="edge">
<title>mulle&#45;core&#45;&gt;mulle&#45;aba</title>
<path fill="none" stroke="black" d="M46.71,-765.01C45.58,-859.34 44.94,-1295.97 128,-1395 136.96,-1405.68 150.05,-1412.22 163.39,-1416.19"/>
<polygon fill="black" stroke="black" points="162.54,-1419.58 173.1,-1418.65 164.26,-1412.8 162.54,-1419.58"/>
</g>
<!-- mulle&#45;allocator -->
<g id="node4" class="node">
<title>mulle&#45;allocator</title>
<g id="a_node4"><a xlink:href="https://github.com/mulle-c/mulle-allocator@*" xlink:title="mulle&#45;allocator">
<polygon fill="lightgrey" stroke="black" points="278,-1386 155,-1386 155,-1350 278,-1350 278,-1386"/>
<text text-anchor="middle" x="216.5" y="-1364.3" font-family="Times,serif" font-size="14.00">mulle&#45;allocator</text>
</a>
</g>
</g>
<!-- mulle&#45;core&#45;&gt;mulle&#45;allocator -->
<g id="edge3" class="edge">
<title>mulle&#45;core&#45;&gt;mulle&#45;allocator</title>
<path fill="none" stroke="black" d="M46.94,-765.26C47.02,-855.3 51.75,-1251.12 128,-1341 132.81,-1346.67 138.78,-1351.17 145.33,-1354.73"/>
<polygon fill="black" stroke="black" points="144.01,-1357.98 154.56,-1359.04 146.97,-1351.64 144.01,-1357.98"/>
</g>
<!-- mulle&#45;buffer -->
<g id="node5" class="node">
<title>mulle&#45;buffer</title>
<g id="a_node5"><a xlink:href="https://github.com/mulle-c/mulle-buffer@*" xlink:title="mulle&#45;buffer">
<polygon fill="lightgrey" stroke="black" points="268.5,-1332 164.5,-1332 164.5,-1296 268.5,-1296 268.5,-1332"/>
<text text-anchor="middle" x="216.5" y="-1310.3" font-family="Times,serif" font-size="14.00">mulle&#45;buffer</text>
</a>
</g>
</g>
<!-- mulle&#45;core&#45;&gt;mulle&#45;buffer -->
<g id="edge4" class="edge">
<title>mulle&#45;core&#45;&gt;mulle&#45;buffer</title>
<path fill="none" stroke="black" d="M47.22,-765.28C48.59,-850.28 58.47,-1206.14 128,-1287 134.99,-1295.13 144.37,-1300.85 154.4,-1304.87"/>
<polygon fill="black" stroke="black" points="153.56,-1308.28 164.15,-1308.22 155.83,-1301.66 153.56,-1308.28"/>
</g>
<!-- mulle&#45;c11 -->
<g id="node6" class="node">
<title>mulle&#45;c11</title>
<g id="a_node6"><a xlink:href="https://github.com/mulle-c/mulle-c11@*" xlink:title="mulle&#45;c11">
<polygon fill="lightgrey" stroke="black" points="259.5,-1278 173.5,-1278 173.5,-1242 259.5,-1242 259.5,-1278"/>
<text text-anchor="middle" x="216.5" y="-1256.3" font-family="Times,serif" font-size="14.00">mulle&#45;c11</text>
</a>
</g>
</g>
<!-- mulle&#45;core&#45;&gt;mulle&#45;c11 -->
<g id="edge5" class="edge">
<title>mulle&#45;core&#45;&gt;mulle&#45;c11</title>
<path fill="none" stroke="black" d="M47.54,-765.03C50.29,-844.29 65.09,-1161.03 128,-1233 137.09,-1243.4 150.08,-1249.85 163.29,-1253.83"/>
<polygon fill="black" stroke="black" points="162.8,-1257.32 173.36,-1256.42 164.55,-1250.54 162.8,-1257.32"/>
</g>
<!-- mulle&#45;concurrent -->
<g id="node7" class="node">
<title>mulle&#45;concurrent</title>
<g id="a_node7"><a xlink:href="https://github.com/mulle-concurrent/mulle-concurrent@*" xlink:title="mulle&#45;concurrent">
<polygon fill="lightgrey" stroke="black" points="286,-1224 147,-1224 147,-1188 286,-1188 286,-1224"/>
<text text-anchor="middle" x="216.5" y="-1202.3" font-family="Times,serif" font-size="14.00">mulle&#45;concurrent</text>
</a>
</g>
</g>
<!-- mulle&#45;core&#45;&gt;mulle&#45;concurrent -->
<g id="edge6" class="edge">
<title>mulle&#45;core&#45;&gt;mulle&#45;concurrent</title>
<path fill="none" stroke="black" d="M47.97,-765.24C52.24,-839.22 71.81,-1116.01 128,-1179 131.06,-1182.43 134.54,-1185.43 138.32,-1188.05"/>
<polygon fill="black" stroke="black" points="136.61,-1191.1 146.99,-1193.21 140.18,-1185.09 136.61,-1191.1"/>
</g>
<!-- mulle&#45;container&#45;debug -->
<g id="node8" class="node">
<title>mulle&#45;container&#45;debug</title>
<g id="a_node8"><a xlink:href="https://github.com/mulle-c/mulle-container-debug@*" xlink:title="mulle&#45;container&#45;debug">
<polygon fill="lightgrey" stroke="black" points="305,-1170 128,-1170 128,-1134 305,-1134 305,-1170"/>
<text text-anchor="middle" x="216.5" y="-1148.3" font-family="Times,serif" font-size="14.00">mulle&#45;container&#45;debug</text>
</a>
</g>
</g>
<!-- mulle&#45;core&#45;&gt;mulle&#45;container&#45;debug -->
<g id="edge8" class="edge">
<title>mulle&#45;core&#45;&gt;mulle&#45;container&#45;debug</title>
<path fill="none" stroke="black" d="M48.48,-765.01C54.38,-832.7 78.38,-1070.79 128,-1125 128.78,-1125.85 129.58,-1126.67 130.41,-1127.47"/>
<polygon fill="black" stroke="black" points="128.48,-1130.41 138.46,-1133.98 132.88,-1124.97 128.48,-1130.41"/>
</g>
<!-- mulle&#45;container -->
<g id="node9" class="node">
<title>mulle&#45;container</title>
<g id="a_node9"><a xlink:href="https://github.com/mulle-c/mulle-container@*" xlink:title="mulle&#45;container">
<polygon fill="lightgrey" stroke="black" points="280.5,-1116 152.5,-1116 152.5,-1080 280.5,-1080 280.5,-1116"/>
<text text-anchor="middle" x="216.5" y="-1094.3" font-family="Times,serif" font-size="14.00">mulle&#45;container</text>
</a>
</g>
</g>
<!-- mulle&#45;core&#45;&gt;mulle&#45;container -->
<g id="edge7" class="edge">
<title>mulle&#45;core&#45;&gt;mulle&#45;container</title>
<path fill="none" stroke="black" d="M49.21,-765.36C57.01,-827.05 85.04,-1025.64 128,-1071 132.38,-1075.62 137.52,-1079.46 143.09,-1082.64"/>
<polygon fill="black" stroke="black" points="141.63,-1085.82 152.14,-1087.12 144.74,-1079.55 141.63,-1085.82"/>
</g>
<!-- mulle&#45;data -->
<g id="node10" class="node">
<title>mulle&#45;data</title>
<g id="a_node10"><a xlink:href="https://github.com/mulle-c/mulle-data@*" xlink:title="mulle&#45;data">
<polygon fill="lightgrey" stroke="black" points="262.5,-1062 170.5,-1062 170.5,-1026 262.5,-1026 262.5,-1062"/>
<text text-anchor="middle" x="216.5" y="-1040.3" font-family="Times,serif" font-size="14.00">mulle&#45;data</text>
</a>
</g>
</g>
<!-- mulle&#45;core&#45;&gt;mulle&#45;data -->
<g id="edge9" class="edge">
<title>mulle&#45;core&#45;&gt;mulle&#45;data</title>
<path fill="none" stroke="black" d="M46.93,-765.33C47.77,-813.58 56.82,-945.26 128,-1017 136.84,-1025.9 148.54,-1031.89 160.5,-1035.9"/>
<polygon fill="black" stroke="black" points="159.52,-1039.26 170.1,-1038.71 161.49,-1032.54 159.52,-1039.26"/>
</g>
<!-- mulle&#45;dtostr -->
<g id="node11" class="node">
<title>mulle&#45;dtostr</title>
<g id="a_node11"><a xlink:href="https://github.com/mulle-core/mulle-dtostr@*" xlink:title="mulle&#45;dtostr">
<polygon fill="lightgrey" stroke="black" points="268.5,-1008 164.5,-1008 164.5,-972 268.5,-972 268.5,-1008"/>
<text text-anchor="middle" x="216.5" y="-986.3" font-family="Times,serif" font-size="14.00">mulle&#45;dtostr</text>
</a>
</g>
</g>
<!-- mulle&#45;core&#45;&gt;mulle&#45;dtostr -->
<g id="edge10" class="edge">
<title>mulle&#45;core&#45;&gt;mulle&#45;dtostr</title>
<path fill="none" stroke="black" d="M48.53,-765.29C52.97,-806.63 69.56,-907.93 128,-963 135.54,-970.11 144.91,-975.34 154.7,-979.2"/>
<polygon fill="black" stroke="black" points="153.56,-982.51 164.15,-982.5 155.86,-975.9 153.56,-982.51"/>
</g>
<!-- mulle&#45;fifo -->
<g id="node12" class="node">
<title>mulle&#45;fifo</title>
<g id="a_node12"><a xlink:href="https://github.com/mulle-concurrent/mulle-fifo@*" xlink:title="mulle&#45;fifo">
<polygon fill="lightgrey" stroke="black" points="258,-954 175,-954 175,-918 258,-918 258,-954"/>
<text text-anchor="middle" x="216.5" y="-932.3" font-family="Times,serif" font-size="14.00">mulle&#45;fifo</text>
</a>
</g>
</g>
<!-- mulle&#45;core&#45;&gt;mulle&#45;fifo -->
<g id="edge11" class="edge">
<title>mulle&#45;core&#45;&gt;mulle&#45;fifo</title>
<path fill="none" stroke="black" d="M51.09,-765.25C59.53,-798.73 82.07,-870.06 128,-909 138.44,-917.85 151.74,-923.8 164.81,-927.8"/>
<polygon fill="black" stroke="black" points="164.14,-931.24 174.71,-930.49 165.98,-924.49 164.14,-931.24"/>
</g>
<!-- mulle&#45;fprintf -->
<g id="node13" class="node">
<title>mulle&#45;fprintf</title>
<g id="a_node13"><a xlink:href="https://github.com/mulle-core/mulle-fprintf@*" xlink:title="mulle&#45;fprintf">
<polygon fill="lightgrey" stroke="black" points="270,-900 163,-900 163,-864 270,-864 270,-900"/>
<text text-anchor="middle" x="216.5" y="-878.3" font-family="Times,serif" font-size="14.00">mulle&#45;fprintf</text>
</a>
</g>
</g>
<!-- mulle&#45;core&#45;&gt;mulle&#45;fprintf -->
<g id="edge12" class="edge">
<title>mulle&#45;core&#45;&gt;mulle&#45;fprintf</title>
<path fill="none" stroke="black" d="M55.9,-765.09C68.63,-789.11 94.27,-831.26 128,-855 135.54,-860.31 144.16,-864.6 152.98,-868.06"/>
<polygon fill="black" stroke="black" points="151.99,-871.42 162.58,-871.49 154.35,-864.83 151.99,-871.42"/>
</g>
<!-- mulle&#45;http -->
<g id="node14" class="node">
<title>mulle&#45;http</title>
<g id="a_node14"><a xlink:href="https://github.com/mulle-c/mulle-http@*" xlink:title="mulle&#45;http">
<polygon fill="lightgrey" stroke="black" points="262,-846 171,-846 171,-810 262,-810 262,-846"/>
<text text-anchor="middle" x="216.5" y="-824.3" font-family="Times,serif" font-size="14.00">mulle&#45;http</text>
</a>
</g>
</g>
<!-- mulle&#45;core&#45;&gt;mulle&#45;http -->
<g id="edge13" class="edge">
<title>mulle&#45;core&#45;&gt;mulle&#45;http</title>
<path fill="none" stroke="black" d="M70.37,-765.22C85.99,-776.72 107.39,-791.21 128,-801 138.44,-805.96 150.01,-810.28 161.22,-813.93"/>
<polygon fill="black" stroke="black" points="160.35,-817.32 170.94,-816.95 162.44,-810.64 160.35,-817.32"/>
</g>
<!-- mulle&#45;linkedlist -->
<g id="node15" class="node">
<title>mulle&#45;linkedlist</title>
<g id="a_node15"><a xlink:href="https://github.com/mulle-concurrent/mulle-linkedlist@*" xlink:title="mulle&#45;linkedlist">
<polygon fill="lightgrey" stroke="black" points="280,-792 153,-792 153,-756 280,-756 280,-792"/>
<text text-anchor="middle" x="216.5" y="-770.3" font-family="Times,serif" font-size="14.00">mulle&#45;linkedlist</text>
</a>
</g>
</g>
<!-- mulle&#45;core&#45;&gt;mulle&#45;linkedlist -->
<g id="edge14" class="edge">
<title>mulle&#45;core&#45;&gt;mulle&#45;linkedlist</title>
<path fill="none" stroke="black" d="M92.15,-754.24C107.72,-756.73 125.57,-759.59 142.77,-762.35"/>
<polygon fill="black" stroke="black" points="142.37,-765.83 152.8,-763.95 143.48,-758.91 142.37,-765.83"/>
</g>
<!-- mulle&#45;mmap -->
<g id="node16" class="node">
<title>mulle&#45;mmap</title>
<g id="a_node16"><a xlink:href="https://github.com/mulle-core/mulle-mmap@*" xlink:title="mulle&#45;mmap">
<polygon fill="lightgrey" stroke="black" points="269,-738 164,-738 164,-702 269,-702 269,-738"/>
<text text-anchor="middle" x="216.5" y="-716.3" font-family="Times,serif" font-size="14.00">mulle&#45;mmap</text>
</a>
</g>
</g>
<!-- mulle&#45;core&#45;&gt;mulle&#45;mmap -->
<g id="edge15" class="edge">
<title>mulle&#45;core&#45;&gt;mulle&#45;mmap</title>
<path fill="none" stroke="black" d="M92.15,-739.76C111.17,-736.72 133.6,-733.12 154.09,-729.84"/>
<polygon fill="black" stroke="black" points="154.64,-733.3 163.96,-728.26 153.53,-726.38 154.64,-733.3"/>
</g>
<!-- mulle&#45;multififo -->
<g id="node17" class="node">
<title>mulle&#45;multififo</title>
<g id="a_node17"><a xlink:href="https://github.com/mulle-concurrent/mulle-multififo@*" xlink:title="mulle&#45;multififo">
<polygon fill="lightgrey" stroke="black" points="277,-684 156,-684 156,-648 277,-648 277,-684"/>
<text text-anchor="middle" x="216.5" y="-662.3" font-family="Times,serif" font-size="14.00">mulle&#45;multififo</text>
</a>
</g>
</g>
<!-- mulle&#45;core&#45;&gt;mulle&#45;multififo -->
<g id="edge16" class="edge">
<title>mulle&#45;core&#45;&gt;mulle&#45;multififo</title>
<path fill="none" stroke="black" d="M70.37,-728.78C85.99,-717.28 107.39,-702.79 128,-693 133.75,-690.27 139.84,-687.73 146.02,-685.39"/>
<polygon fill="black" stroke="black" points="147.56,-688.56 155.78,-681.89 145.19,-681.97 147.56,-688.56"/>
</g>
<!-- mulle&#45;rbtree -->
<g id="node18" class="node">
<title>mulle&#45;rbtree</title>
<g id="a_node18"><a xlink:href="https://github.com/mulle-c/mulle-rbtree@*" xlink:title="mulle&#45;rbtree">
<polygon fill="lightgrey" stroke="black" points="269.5,-630 163.5,-630 163.5,-594 269.5,-594 269.5,-630"/>
<text text-anchor="middle" x="216.5" y="-608.3" font-family="Times,serif" font-size="14.00">mulle&#45;rbtree</text>
</a>
</g>
</g>
<!-- mulle&#45;core&#45;&gt;mulle&#45;rbtree -->
<g id="edge17" class="edge">
<title>mulle&#45;core&#45;&gt;mulle&#45;rbtree</title>
<path fill="none" stroke="black" d="M55.9,-728.91C68.63,-704.89 94.27,-662.74 128,-639 135.82,-633.5 144.79,-629.09 153.94,-625.57"/>
<polygon fill="black" stroke="black" points="155.22,-628.83 163.5,-622.21 152.9,-622.22 155.22,-628.83"/>
</g>
<!-- mulle&#45;rbtree&#45;debug -->
<g id="node19" class="node">
<title>mulle&#45;rbtree&#45;debug</title>
<g id="a_node19"><a xlink:href="https://github.com/mulle-core/mulle-rbtree-debug@*" xlink:title="mulle&#45;rbtree&#45;debug">
<polygon fill="lightgrey" stroke="black" points="294,-576 139,-576 139,-540 294,-540 294,-576"/>
<text text-anchor="middle" x="216.5" y="-554.3" font-family="Times,serif" font-size="14.00">mulle&#45;rbtree&#45;debug</text>
</a>
</g>
</g>
<!-- mulle&#45;core&#45;&gt;mulle&#45;rbtree&#45;debug -->
<g id="edge18" class="edge">
<title>mulle&#45;core&#45;&gt;mulle&#45;rbtree&#45;debug</title>
<path fill="none" stroke="black" d="M51.09,-728.75C59.53,-695.27 82.07,-623.94 128,-585 129.38,-583.83 130.8,-582.72 132.27,-581.65"/>
<polygon fill="black" stroke="black" points="134.53,-584.36 141.1,-576.05 130.78,-578.45 134.53,-584.36"/>
</g>
<!-- mulle&#45;regex -->
<g id="node20" class="node">
<title>mulle&#45;regex</title>
<g id="a_node20"><a xlink:href="https://github.com/mulle-c/mulle-regex@*" xlink:title="mulle&#45;regex">
<polygon fill="lightgrey" stroke="black" points="267,-522 166,-522 166,-486 267,-486 267,-522"/>
<text text-anchor="middle" x="216.5" y="-500.3" font-family="Times,serif" font-size="14.00">mulle&#45;regex</text>
</a>
</g>
</g>
<!-- mulle&#45;core&#45;&gt;mulle&#45;regex -->
<g id="edge19" class="edge">
<title>mulle&#45;core&#45;&gt;mulle&#45;regex</title>
<path fill="none" stroke="black" d="M48.53,-728.71C52.97,-687.37 69.56,-586.07 128,-531 135.97,-523.49 145.99,-518.06 156.38,-514.15"/>
<polygon fill="black" stroke="black" points="157.59,-517.43 165.98,-510.96 155.38,-510.79 157.59,-517.43"/>
</g>
<!-- mulle&#45;slug -->
<g id="node21" class="node">
<title>mulle&#45;slug</title>
<g id="a_node21"><a xlink:href="https://github.com/mulle-c/mulle-slug@*" xlink:title="mulle&#45;slug">
<polygon fill="lightgrey" stroke="black" points="262,-468 171,-468 171,-432 262,-432 262,-468"/>
<text text-anchor="middle" x="216.5" y="-446.3" font-family="Times,serif" font-size="14.00">mulle&#45;slug</text>
</a>
</g>
</g>
<!-- mulle&#45;core&#45;&gt;mulle&#45;slug -->
<g id="edge20" class="edge">
<title>mulle&#45;core&#45;&gt;mulle&#45;slug</title>
<path fill="none" stroke="black" d="M46.93,-728.67C47.77,-680.42 56.82,-548.74 128,-477 136.92,-468.01 148.77,-462 160.86,-457.98"/>
<polygon fill="black" stroke="black" points="161.92,-461.32 170.55,-455.17 159.97,-454.59 161.92,-461.32"/>
</g>
<!-- mulle&#45;sprintf -->
<g id="node22" class="node">
<title>mulle&#45;sprintf</title>
<g id="a_node22"><a xlink:href="https://github.com/mulle-core/mulle-sprintf@*" xlink:title="mulle&#45;sprintf">
<polygon fill="lightgrey" stroke="black" points="271,-414 162,-414 162,-378 271,-378 271,-414"/>
<text text-anchor="middle" x="216.5" y="-392.3" font-family="Times,serif" font-size="14.00">mulle&#45;sprintf</text>
</a>
</g>
</g>
<!-- mulle&#45;core&#45;&gt;mulle&#45;sprintf -->
<g id="edge21" class="edge">
<title>mulle&#45;core&#45;&gt;mulle&#45;sprintf</title>
<path fill="none" stroke="black" d="M49.21,-728.64C57.01,-666.95 85.04,-468.36 128,-423 134.65,-415.98 143.09,-410.76 152.08,-406.9"/>
<polygon fill="black" stroke="black" points="153.46,-410.12 161.61,-403.35 151.01,-403.57 153.46,-410.12"/>
</g>
<!-- mulle&#45;storage -->
<g id="node23" class="node">
<title>mulle&#45;storage</title>
<g id="a_node23"><a xlink:href="https://github.com/mulle-c/mulle-storage@*" xlink:title="mulle&#45;storage">
<polygon fill="lightgrey" stroke="black" points="274,-360 159,-360 159,-324 274,-324 274,-360"/>
<text text-anchor="middle" x="216.5" y="-338.3" font-family="Times,serif" font-size="14.00">mulle&#45;storage</text>
</a>
</g>
</g>
<!-- mulle&#45;core&#45;&gt;mulle&#45;storage -->
<g id="edge22" class="edge">
<title>mulle&#45;core&#45;&gt;mulle&#45;storage</title>
<path fill="none" stroke="black" d="M48.48,-728.99C54.38,-661.3 78.38,-423.21 128,-369 133.86,-362.59 141.21,-357.69 149.14,-353.95"/>
<polygon fill="black" stroke="black" points="150.72,-357.08 158.66,-350.06 148.08,-350.6 150.72,-357.08"/>
</g>
<!-- mulle&#45;thread -->
<g id="node24" class="node">
<title>mulle&#45;thread</title>
<g id="a_node24"><a xlink:href="https://github.com/mulle-concurrent/mulle-thread@*" xlink:title="mulle&#45;thread">
<polygon fill="lightgrey" stroke="black" points="270.5,-306 162.5,-306 162.5,-270 270.5,-270 270.5,-306"/>
<text text-anchor="middle" x="216.5" y="-284.3" font-family="Times,serif" font-size="14.00">mulle&#45;thread</text>
</a>
</g>
</g>
<!-- mulle&#45;core&#45;&gt;mulle&#45;thread -->
<g id="edge23" class="edge">
<title>mulle&#45;core&#45;&gt;mulle&#45;thread</title>
<path fill="none" stroke="black" d="M47.97,-728.76C52.24,-654.78 71.81,-377.99 128,-315 134.67,-307.53 143.35,-302.1 152.66,-298.16"/>
<polygon fill="black" stroke="black" points="153.93,-301.42 162.12,-294.69 151.53,-294.84 153.93,-301.42"/>
</g>
<!-- mulle&#45;time -->
<g id="node25" class="node">
<title>mulle&#45;time</title>
<g id="a_node25"><a xlink:href="https://github.com/mulle-core/mulle-time@*" xlink:title="mulle&#45;time">
<polygon fill="lightgrey" stroke="black" points="263,-252 170,-252 170,-216 263,-216 263,-252"/>
<text text-anchor="middle" x="216.5" y="-230.3" font-family="Times,serif" font-size="14.00">mulle&#45;time</text>
</a>
</g>
</g>
<!-- mulle&#45;core&#45;&gt;mulle&#45;time -->
<g id="edge24" class="edge">
<title>mulle&#45;core&#45;&gt;mulle&#45;time</title>
<path fill="none" stroke="black" d="M47.54,-728.97C50.29,-649.71 65.09,-332.97 128,-261 136.34,-251.46 147.96,-245.24 160.02,-241.21"/>
<polygon fill="black" stroke="black" points="161.09,-244.54 169.73,-238.41 159.16,-237.81 161.09,-244.54"/>
</g>
<!-- mulle&#45;unicode -->
<g id="node26" class="node">
<title>mulle&#45;unicode</title>
<g id="a_node26"><a xlink:href="https://github.com/mulle-c/mulle-unicode@*" xlink:title="mulle&#45;unicode">
<polygon fill="lightgrey" stroke="black" points="274.5,-198 158.5,-198 158.5,-162 274.5,-162 274.5,-198"/>
<text text-anchor="middle" x="216.5" y="-176.3" font-family="Times,serif" font-size="14.00">mulle&#45;unicode</text>
</a>
</g>
</g>
<!-- mulle&#45;core&#45;&gt;mulle&#45;unicode -->
<g id="edge25" class="edge">
<title>mulle&#45;core&#45;&gt;mulle&#45;unicode</title>
<path fill="none" stroke="black" d="M47.22,-728.72C48.59,-643.72 58.47,-287.86 128,-207 133.66,-200.42 140.89,-195.41 148.76,-191.61"/>
<polygon fill="black" stroke="black" points="150.34,-194.75 158.24,-187.69 147.66,-188.28 150.34,-194.75"/>
</g>
<!-- mulle&#45;url -->
<g id="node27" class="node">
<title>mulle&#45;url</title>
<g id="a_node27"><a xlink:href="https://github.com/mulle-c/mulle-url@*" xlink:title="mulle&#45;url">
<polygon fill="lightgrey" stroke="black" points="257,-144 176,-144 176,-108 257,-108 257,-144"/>
<text text-anchor="middle" x="216.5" y="-122.3" font-family="Times,serif" font-size="14.00">mulle&#45;url</text>
</a>
</g>
</g>
<!-- mulle&#45;core&#45;&gt;mulle&#45;url -->
<g id="edge26" class="edge">
<title>mulle&#45;core&#45;&gt;mulle&#45;url</title>
<path fill="none" stroke="black" d="M46.94,-728.74C47.02,-638.7 51.75,-242.88 128,-153 137.61,-141.67 151.86,-135.02 166.09,-131.13"/>
<polygon fill="black" stroke="black" points="166.92,-134.53 175.87,-128.86 165.34,-127.71 166.92,-134.53"/>
</g>
<!-- mulle&#45;utf -->
<g id="node28" class="node">
<title>mulle&#45;utf</title>
<g id="a_node28"><a xlink:href="https://github.com/mulle-c/mulle-utf@*" xlink:title="mulle&#45;utf">
<polygon fill="lightgrey" stroke="black" points="257,-90 176,-90 176,-54 257,-54 257,-90"/>
<text text-anchor="middle" x="216.5" y="-68.3" font-family="Times,serif" font-size="14.00">mulle&#45;utf</text>
</a>
</g>
</g>
<!-- mulle&#45;core&#45;&gt;mulle&#45;utf -->
<g id="edge27" class="edge">
<title>mulle&#45;core&#45;&gt;mulle&#45;utf</title>
<path fill="none" stroke="black" d="M46.71,-728.99C45.58,-634.66 44.94,-198.03 128,-99 137.55,-87.62 151.78,-80.95 166.01,-77.07"/>
<polygon fill="black" stroke="black" points="166.85,-80.47 175.8,-74.8 165.27,-73.65 166.85,-80.47"/>
</g>
<!-- mulle&#45;vararg -->
<g id="node29" class="node">
<title>mulle&#45;vararg</title>
<g id="a_node29"><a xlink:href="https://github.com/mulle-c/mulle-vararg@*" xlink:title="mulle&#45;vararg">
<polygon fill="lightgrey" stroke="black" points="270.5,-36 162.5,-36 162.5,0 270.5,0 270.5,-36"/>
<text text-anchor="middle" x="216.5" y="-14.3" font-family="Times,serif" font-size="14.00">mulle&#45;vararg</text>
</a>
</g>
</g>
<!-- mulle&#45;core&#45;&gt;mulle&#45;vararg -->
<g id="edge28" class="edge">
<title>mulle&#45;core&#45;&gt;mulle&#45;vararg</title>
<path fill="none" stroke="black" d="M47.92,-728.77C53.4,-623.81 82.87,-99.32 128,-45 134.48,-37.2 143.15,-31.62 152.53,-27.62"/>
<polygon fill="black" stroke="black" points="153.9,-30.85 162.09,-24.13 151.5,-24.27 153.9,-30.85"/>
</g>
</g>
</svg>
