<?xml version="1.0" encoding="UTF-8" standalone="no"?>
<!DOCTYPE svg PUBLIC "-//W3C//DTD SVG 1.1//EN"
 "http://www.w3.org/Graphics/SVG/1.1/DTD/svg11.dtd">
<!-- Generated by graphviz version 2.43.0 (0)
 -->
<!-- Title: sourcetree Pages: 1 -->
<svg width="313pt" height="1556pt"
 viewBox="0.00 0.00 313.00 1556.00" xmlns="http://www.w3.org/2000/svg" xmlns:xlink="http://www.w3.org/1999/xlink">
<g id="graph0" class="graph" transform="scale(1 1) rotate(0) translate(4 1552)">
<title>sourcetree</title>
<polygon fill="white" stroke="transparent" points="-4,4 -4,-1552 309,-1552 309,4 -4,4"/>
<!-- mulle&#45;core -->
<g id="node1" class="node">
<title>mulle&#45;core</title>
<polygon fill="yellow" stroke="black" points="92,-792 0,-792 0,-756 92,-756 92,-792"/>
<text text-anchor="middle" x="46" y="-770.3" font-family="Times,serif" font-size="14.00">mulle&#45;core</text>
</g>
<!-- dlfcn&#45;win32 -->
<g id="node2" class="node">
<title>dlfcn&#45;win32</title>
<g id="a_node2"><a xlink:href="https://github.com/mulle-core/dlfcn-win32" xlink:title="dlfcn&#45;win32">
<polygon fill="lightgrey" stroke="black" points="266.5,-1548 166.5,-1548 166.5,-1512 266.5,-1512 266.5,-1548"/>
<text text-anchor="middle" x="216.5" y="-1526.3" font-family="Times,serif" font-size="14.00">dlfcn&#45;win32</text>
</a>
</g>
</g>
<!-- mulle&#45;core&#45;&gt;dlfcn&#45;win32 -->
<g id="edge1" class="edge">
<title>mulle&#45;core&#45;&gt;dlfcn&#45;win32</title>
<path fill="none" stroke="black" d="M47.84,-792.23C52.95,-899.55 81.18,-1446.39 128,-1503 135.37,-1511.91 145.61,-1517.93 156.49,-1521.99"/>
<polygon fill="black" stroke="black" points="155.58,-1525.38 166.17,-1525.08 157.71,-1518.71 155.58,-1525.38"/>
</g>
<!-- mintomic -->
<g id="node3" class="node">
<title>mintomic</title>
<g id="a_node3"><a xlink:href="https://github.com/mulle-concurrent/mintomic" xlink:title="mintomic">
<polygon fill="lightgrey" stroke="black" points="258,-1494 175,-1494 175,-1458 258,-1458 258,-1494"/>
<text text-anchor="middle" x="216.5" y="-1472.3" font-family="Times,serif" font-size="14.00">mintomic</text>
</a>
</g>
</g>
<!-- mulle&#45;core&#45;&gt;mintomic -->
<g id="edge2" class="edge">
<title>mulle&#45;core&#45;&gt;mintomic</title>
<path fill="none" stroke="black" d="M46.61,-792.11C44.9,-888.99 41.6,-1345.47 128,-1449 137.26,-1460.1 150.98,-1466.72 164.83,-1470.64"/>
<polygon fill="black" stroke="black" points="164.33,-1474.12 174.87,-1473.05 165.96,-1467.31 164.33,-1474.12"/>
</g>
<!-- mulle&#45;aba -->
<g id="node4" class="node">
<title>mulle&#45;aba</title>
<g id="a_node4"><a xlink:href="https://github.com/mulle-concurrent/mulle-aba@*" xlink:title="mulle&#45;aba">
<polygon fill="lightgrey" stroke="black" points="259.5,-1440 173.5,-1440 173.5,-1404 259.5,-1404 259.5,-1440"/>
<text text-anchor="middle" x="216.5" y="-1418.3" font-family="Times,serif" font-size="14.00">mulle&#45;aba</text>
</a>
</g>
</g>
<!-- mulle&#45;core&#45;&gt;mulle&#45;aba -->
<g id="edge3" class="edge">
<title>mulle&#45;core&#45;&gt;mulle&#45;aba</title>
<path fill="none" stroke="black" d="M46.82,-792.16C46.28,-884.44 48.36,-1300.56 128,-1395 136.99,-1405.66 150.09,-1412.18 163.43,-1416.16"/>
<polygon fill="black" stroke="black" points="162.58,-1419.55 173.13,-1418.62 164.3,-1412.77 162.58,-1419.55"/>
</g>
<!-- mulle&#45;allocator -->
<g id="node5" class="node">
<title>mulle&#45;allocator</title>
<g id="a_node5"><a xlink:href="https://github.com/mulle-c/mulle-allocator@*" xlink:title="mulle&#45;allocator">
<polygon fill="lightgrey" stroke="black" points="278,-1386 155,-1386 155,-1350 278,-1350 278,-1386"/>
<text text-anchor="middle" x="216.5" y="-1364.3" font-family="Times,serif" font-size="14.00">mulle&#45;allocator</text>
</a>
</g>
</g>
<!-- mulle&#45;core&#45;&gt;mulle&#45;allocator -->
<g id="edge4" class="edge">
<title>mulle&#45;core&#45;&gt;mulle&#45;allocator</title>
<path fill="none" stroke="black" d="M47.07,-792.01C47.77,-879.08 55.04,-1255.55 128,-1341 132.83,-1346.65 138.81,-1351.14 145.36,-1354.7"/>
<polygon fill="black" stroke="black" points="144.06,-1357.95 154.6,-1359 147.01,-1351.61 144.06,-1357.95"/>
</g>
<!-- mulle&#45;buffer -->
<g id="node6" class="node">
<title>mulle&#45;buffer</title>
<g id="a_node6"><a xlink:href="https://github.com/mulle-c/mulle-buffer@*" xlink:title="mulle&#45;buffer">
<polygon fill="lightgrey" stroke="black" points="268.5,-1332 164.5,-1332 164.5,-1296 268.5,-1296 268.5,-1332"/>
<text text-anchor="middle" x="216.5" y="-1310.3" font-family="Times,serif" font-size="14.00">mulle&#45;buffer</text>
</a>
</g>
</g>
<!-- mulle&#45;core&#45;&gt;mulle&#45;buffer -->
<g id="edge5" class="edge">
<title>mulle&#45;core&#45;&gt;mulle&#45;buffer</title>
<path fill="none" stroke="black" d="M47.37,-792.19C49.42,-874.41 61.79,-1210.6 128,-1287 135.02,-1295.1 144.42,-1300.81 154.45,-1304.82"/>
<polygon fill="black" stroke="black" points="153.61,-1308.23 164.2,-1308.17 155.88,-1301.61 153.61,-1308.23"/>
</g>
<!-- mulle&#45;c11 -->
<g id="node7" class="node">
<title>mulle&#45;c11</title>
<g id="a_node7"><a xlink:href="https://github.com/mulle-c/mulle-c11@*" xlink:title="mulle&#45;c11">
<polygon fill="lightgrey" stroke="black" points="259.5,-1278 173.5,-1278 173.5,-1242 259.5,-1242 259.5,-1278"/>
<text text-anchor="middle" x="216.5" y="-1256.3" font-family="Times,serif" font-size="14.00">mulle&#45;c11</text>
</a>
</g>
</g>
<!-- mulle&#45;core&#45;&gt;mulle&#45;c11 -->
<g id="edge6" class="edge">
<title>mulle&#45;core&#45;&gt;mulle&#45;c11</title>
<path fill="none" stroke="black" d="M47.74,-792.06C51.22,-868.6 68.43,-1165.5 128,-1233 137.14,-1243.35 150.15,-1249.79 163.35,-1253.77"/>
<polygon fill="black" stroke="black" points="162.87,-1257.26 173.42,-1256.37 164.61,-1250.48 162.87,-1257.26"/>
</g>
<!-- mulle&#45;concurrent -->
<g id="node8" class="node">
<title>mulle&#45;concurrent</title>
<g id="a_node8"><a xlink:href="https://github.com/mulle-concurrent/mulle-concurrent@*" xlink:title="mulle&#45;concurrent">
<polygon fill="lightgrey" stroke="black" points="286,-1224 147,-1224 147,-1188 286,-1188 286,-1224"/>
<text text-anchor="middle" x="216.5" y="-1202.3" font-family="Times,serif" font-size="14.00">mulle&#45;concurrent</text>
</a>
</g>
</g>
<!-- mulle&#45;core&#45;&gt;mulle&#45;concurrent -->
<g id="edge7" class="edge">
<title>mulle&#45;core&#45;&gt;mulle&#45;concurrent</title>
<path fill="none" stroke="black" d="M48.22,-792.3C53.31,-863.43 75.14,-1120.46 128,-1179 130.94,-1182.25 134.26,-1185.12 137.84,-1187.64"/>
<polygon fill="black" stroke="black" points="136.26,-1190.77 146.63,-1192.93 139.87,-1184.77 136.26,-1190.77"/>
</g>
<!-- mulle&#45;container&#45;debug -->
<g id="node9" class="node">
<title>mulle&#45;container&#45;debug</title>
<g id="a_node9"><a xlink:href="https://github.com/mulle-c/mulle-container-debug" xlink:title="mulle&#45;container&#45;debug">
<polygon fill="lightgrey" stroke="black" points="305,-1170 128,-1170 128,-1134 305,-1134 305,-1170"/>
<text text-anchor="middle" x="216.5" y="-1148.3" font-family="Times,serif" font-size="14.00">mulle&#45;container&#45;debug</text>
</a>
</g>
</g>
<!-- mulle&#45;core&#45;&gt;mulle&#45;container&#45;debug -->
<g id="edge9" class="edge">
<title>mulle&#45;core&#45;&gt;mulle&#45;container&#45;debug</title>
<path fill="none" stroke="black" d="M48.8,-792.05C55.6,-856.66 81.68,-1075.2 128,-1125 128.78,-1125.84 129.6,-1126.66 130.43,-1127.45"/>
<polygon fill="black" stroke="black" points="128.52,-1130.41 138.52,-1133.92 132.9,-1124.95 128.52,-1130.41"/>
</g>
<!-- mulle&#45;container -->
<g id="node10" class="node">
<title>mulle&#45;container</title>
<g id="a_node10"><a xlink:href="https://github.com/mulle-c/mulle-container@*" xlink:title="mulle&#45;container">
<polygon fill="lightgrey" stroke="black" points="280.5,-1116 152.5,-1116 152.5,-1080 280.5,-1080 280.5,-1116"/>
<text text-anchor="middle" x="216.5" y="-1094.3" font-family="Times,serif" font-size="14.00">mulle&#45;container</text>
</a>
</g>
</g>
<!-- mulle&#45;core&#45;&gt;mulle&#45;container -->
<g id="edge8" class="edge">
<title>mulle&#45;core&#45;&gt;mulle&#45;container</title>
<path fill="none" stroke="black" d="M46.33,-792.24C45.49,-843.57 50.33,-990.72 128,-1071 132.43,-1075.57 137.61,-1079.38 143.2,-1082.54"/>
<polygon fill="black" stroke="black" points="141.76,-1085.73 152.27,-1087 144.84,-1079.45 141.76,-1085.73"/>
</g>
<!-- mulle&#45;data -->
<g id="node11" class="node">
<title>mulle&#45;data</title>
<g id="a_node11"><a xlink:href="https://github.com/mulle-c/mulle-data@*" xlink:title="mulle&#45;data">
<polygon fill="lightgrey" stroke="black" points="262.5,-1062 170.5,-1062 170.5,-1026 262.5,-1026 262.5,-1062"/>
<text text-anchor="middle" x="216.5" y="-1040.3" font-family="Times,serif" font-size="14.00">mulle&#45;data</text>
</a>
</g>
</g>
<!-- mulle&#45;core&#45;&gt;mulle&#45;data -->
<g id="edge10" class="edge">
<title>mulle&#45;core&#45;&gt;mulle&#45;data</title>
<path fill="none" stroke="black" d="M47.64,-792.15C50.21,-836.93 63.14,-953.58 128,-1017 136.97,-1025.77 148.72,-1031.7 160.69,-1035.7"/>
<polygon fill="black" stroke="black" points="159.71,-1039.06 170.29,-1038.52 161.68,-1032.35 159.71,-1039.06"/>
</g>
<!-- mulle&#45;dlfcn -->
<g id="node12" class="node">
<title>mulle&#45;dlfcn</title>
<g id="a_node12"><a xlink:href="https://github.com/mulle-core/mulle-dlfcn@*" xlink:title="mulle&#45;dlfcn">
<polygon fill="lightgrey" stroke="black" points="264.5,-1008 168.5,-1008 168.5,-972 264.5,-972 264.5,-1008"/>
<text text-anchor="middle" x="216.5" y="-986.3" font-family="Times,serif" font-size="14.00">mulle&#45;dlfcn</text>
</a>
</g>
</g>
<!-- mulle&#45;core&#45;&gt;mulle&#45;dlfcn -->
<g id="edge11" class="edge">
<title>mulle&#45;core&#45;&gt;mulle&#45;dlfcn</title>
<path fill="none" stroke="black" d="M49.64,-792.28C56.03,-829.84 75.85,-916.08 128,-963 136.59,-970.73 147.36,-976.25 158.38,-980.18"/>
<polygon fill="black" stroke="black" points="157.49,-983.57 168.08,-983.25 159.6,-976.9 157.49,-983.57"/>
</g>
<!-- mulle&#45;fifo -->
<g id="node13" class="node">
<title>mulle&#45;fifo</title>
<g id="a_node13"><a xlink:href="https://github.com/mulle-concurrent/mulle-fifo@*" xlink:title="mulle&#45;fifo">
<polygon fill="lightgrey" stroke="black" points="258,-954 175,-954 175,-918 258,-918 258,-954"/>
<text text-anchor="middle" x="216.5" y="-932.3" font-family="Times,serif" font-size="14.00">mulle&#45;fifo</text>
</a>
</g>
</g>
<!-- mulle&#45;core&#45;&gt;mulle&#45;fifo -->
<g id="edge12" class="edge">
<title>mulle&#45;core&#45;&gt;mulle&#45;fifo</title>
<path fill="none" stroke="black" d="M53.05,-792.19C63.63,-821.19 88.2,-877.8 128,-909 138.67,-917.36 151.94,-923.15 164.89,-927.15"/>
<polygon fill="black" stroke="black" points="164.11,-930.57 174.69,-929.87 165.99,-923.82 164.11,-930.57"/>
</g>
<!-- mulle&#45;fprintf -->
<g id="node14" class="node">
<title>mulle&#45;fprintf</title>
<g id="a_node14"><a xlink:href="https://github.com/mulle-core/mulle-fprintf@*" xlink:title="mulle&#45;fprintf">
<polygon fill="lightgrey" stroke="black" points="270,-900 163,-900 163,-864 270,-864 270,-900"/>
<text text-anchor="middle" x="216.5" y="-878.3" font-family="Times,serif" font-size="14.00">mulle&#45;fprintf</text>
</a>
</g>
</g>
<!-- mulle&#45;core&#45;&gt;mulle&#45;fprintf -->
<g id="edge13" class="edge">
<title>mulle&#45;core&#45;&gt;mulle&#45;fprintf</title>
<path fill="none" stroke="black" d="M60.58,-792.02C75.3,-810.35 100.41,-838.37 128,-855 135.8,-859.7 144.49,-863.65 153.28,-866.95"/>
<polygon fill="black" stroke="black" points="152.23,-870.29 162.82,-870.28 154.53,-863.68 152.23,-870.29"/>
</g>
<!-- mulle&#45;http -->
<g id="node15" class="node">
<title>mulle&#45;http</title>
<g id="a_node15"><a xlink:href="https://github.com/mulle-c/mulle-http@*" xlink:title="mulle&#45;http">
<polygon fill="lightgrey" stroke="black" points="262,-846 171,-846 171,-810 262,-810 262,-846"/>
<text text-anchor="middle" x="216.5" y="-824.3" font-family="Times,serif" font-size="14.00">mulle&#45;http</text>
</a>
</g>
</g>
<!-- mulle&#45;core&#45;&gt;mulle&#45;http -->
<g id="edge14" class="edge">
<title>mulle&#45;core&#45;&gt;mulle&#45;http</title>
<path fill="none" stroke="black" d="M92.35,-789.32C103.96,-793.18 116.43,-797.29 128,-801 138.77,-804.46 150.31,-808.08 161.37,-811.5"/>
<polygon fill="black" stroke="black" points="160.34,-814.85 170.93,-814.46 162.4,-808.16 160.34,-814.85"/>
</g>
<!-- mulle&#45;linkedlist -->
<g id="node16" class="node">
<title>mulle&#45;linkedlist</title>
<g id="a_node16"><a xlink:href="https://github.com/mulle-concurrent/mulle-linkedlist@*" xlink:title="mulle&#45;linkedlist">
<polygon fill="lightgrey" stroke="black" points="280,-792 153,-792 153,-756 280,-756 280,-792"/>
<text text-anchor="middle" x="216.5" y="-770.3" font-family="Times,serif" font-size="14.00">mulle&#45;linkedlist</text>
</a>
</g>
</g>
<!-- mulle&#45;core&#45;&gt;mulle&#45;linkedlist -->
<g id="edge15" class="edge">
<title>mulle&#45;core&#45;&gt;mulle&#45;linkedlist</title>
<path fill="none" stroke="black" d="M92.15,-774C107.72,-774 125.57,-774 142.77,-774"/>
<polygon fill="black" stroke="black" points="142.8,-777.5 152.8,-774 142.8,-770.5 142.8,-777.5"/>
</g>
<!-- mulle&#45;mmap -->
<g id="node17" class="node">
<title>mulle&#45;mmap</title>
<g id="a_node17"><a xlink:href="https://github.com/mulle-core/mulle-mmap@*" xlink:title="mulle&#45;mmap">
<polygon fill="lightgrey" stroke="black" points="269,-738 164,-738 164,-702 269,-702 269,-738"/>
<text text-anchor="middle" x="216.5" y="-716.3" font-family="Times,serif" font-size="14.00">mulle&#45;mmap</text>
</a>
</g>
</g>
<!-- mulle&#45;core&#45;&gt;mulle&#45;mmap -->
<g id="edge16" class="edge">
<title>mulle&#45;core&#45;&gt;mulle&#45;mmap</title>
<path fill="none" stroke="black" d="M92.35,-758.68C103.96,-754.82 116.43,-750.71 128,-747 136.36,-744.32 145.18,-741.54 153.88,-738.82"/>
<polygon fill="black" stroke="black" points="155.11,-742.11 163.62,-735.8 153.03,-735.42 155.11,-742.11"/>
</g>
<!-- mulle&#45;multififo -->
<g id="node18" class="node">
<title>mulle&#45;multififo</title>
<g id="a_node18"><a xlink:href="https://github.com/mulle-concurrent/mulle-multififo@*" xlink:title="mulle&#45;multififo">
<polygon fill="lightgrey" stroke="black" points="277,-684 156,-684 156,-648 277,-648 277,-684"/>
<text text-anchor="middle" x="216.5" y="-662.3" font-family="Times,serif" font-size="14.00">mulle&#45;multififo</text>
</a>
</g>
</g>
<!-- mulle&#45;core&#45;&gt;mulle&#45;multififo -->
<g id="edge17" class="edge">
<title>mulle&#45;core&#45;&gt;mulle&#45;multififo</title>
<path fill="none" stroke="black" d="M60.58,-755.98C75.3,-737.65 100.41,-709.63 128,-693 133.76,-689.53 140.01,-686.46 146.43,-683.77"/>
<polygon fill="black" stroke="black" points="147.86,-686.97 155.92,-680.08 145.33,-680.44 147.86,-686.97"/>
</g>
<!-- mulle&#45;rbtree -->
<g id="node19" class="node">
<title>mulle&#45;rbtree</title>
<g id="a_node19"><a xlink:href="https://github.com/mulle-c/mulle-rbtree@*" xlink:title="mulle&#45;rbtree">
<polygon fill="lightgrey" stroke="black" points="269.5,-630 163.5,-630 163.5,-594 269.5,-594 269.5,-630"/>
<text text-anchor="middle" x="216.5" y="-608.3" font-family="Times,serif" font-size="14.00">mulle&#45;rbtree</text>
</a>
</g>
</g>
<!-- mulle&#45;core&#45;&gt;mulle&#45;rbtree -->
<g id="edge18" class="edge">
<title>mulle&#45;core&#45;&gt;mulle&#45;rbtree</title>
<path fill="none" stroke="black" d="M53.05,-755.81C63.63,-726.81 88.2,-670.2 128,-639 135.61,-633.03 144.55,-628.37 153.76,-624.74"/>
<polygon fill="black" stroke="black" points="155.15,-627.96 163.4,-621.32 152.81,-621.37 155.15,-627.96"/>
</g>
<!-- mulle&#45;regex -->
<g id="node20" class="node">
<title>mulle&#45;regex</title>
<g id="a_node20"><a xlink:href="https://github.com/mulle-c/mulle-regex@" xlink:title="mulle&#45;regex">
<polygon fill="lightgrey" stroke="black" points="267,-576 166,-576 166,-540 267,-540 267,-576"/>
<text text-anchor="middle" x="216.5" y="-554.3" font-family="Times,serif" font-size="14.00">mulle&#45;regex</text>
</a>
</g>
</g>
<!-- mulle&#45;core&#45;&gt;mulle&#45;regex -->
<g id="edge19" class="edge">
<title>mulle&#45;core&#45;&gt;mulle&#45;regex</title>
<path fill="none" stroke="black" d="M49.64,-755.72C56.03,-718.16 75.85,-631.92 128,-585 136.05,-577.75 146.02,-572.45 156.31,-568.58"/>
<polygon fill="black" stroke="black" points="157.43,-571.89 165.8,-565.4 155.21,-565.25 157.43,-571.89"/>
</g>
<!-- mulle&#45;slug -->
<g id="node21" class="node">
<title>mulle&#45;slug</title>
<g id="a_node21"><a xlink:href="https://github.com/mulle-c/mulle-slug@*" xlink:title="mulle&#45;slug">
<polygon fill="lightgrey" stroke="black" points="262,-522 171,-522 171,-486 262,-486 262,-522"/>
<text text-anchor="middle" x="216.5" y="-500.3" font-family="Times,serif" font-size="14.00">mulle&#45;slug</text>
</a>
</g>
</g>
<!-- mulle&#45;core&#45;&gt;mulle&#45;slug -->
<g id="edge20" class="edge">
<title>mulle&#45;core&#45;&gt;mulle&#45;slug</title>
<path fill="none" stroke="black" d="M47.64,-755.85C50.21,-711.07 63.14,-594.42 128,-531 137.06,-522.14 148.96,-516.18 161.05,-512.18"/>
<polygon fill="black" stroke="black" points="162.11,-515.51 170.74,-509.36 160.16,-508.79 162.11,-515.51"/>
</g>
<!-- mulle&#45;sprintf -->
<g id="node22" class="node">
<title>mulle&#45;sprintf</title>
<g id="a_node22"><a xlink:href="https://github.com/mulle-core/mulle-sprintf@*" xlink:title="mulle&#45;sprintf">
<polygon fill="lightgrey" stroke="black" points="271,-468 162,-468 162,-432 271,-432 271,-468"/>
<text text-anchor="middle" x="216.5" y="-446.3" font-family="Times,serif" font-size="14.00">mulle&#45;sprintf</text>
</a>
</g>
</g>
<!-- mulle&#45;core&#45;&gt;mulle&#45;sprintf -->
<g id="edge21" class="edge">
<title>mulle&#45;core&#45;&gt;mulle&#45;sprintf</title>
<path fill="none" stroke="black" d="M46.33,-755.76C45.49,-704.43 50.33,-557.28 128,-477 134.73,-470.05 143.2,-464.87 152.21,-461.03"/>
<polygon fill="black" stroke="black" points="153.59,-464.25 161.74,-457.48 151.15,-457.69 153.59,-464.25"/>
</g>
<!-- mulle&#45;stacktrace -->
<g id="node23" class="node">
<title>mulle&#45;stacktrace</title>
<g id="a_node23"><a xlink:href="https://github.com/mulle-core/mulle-stacktrace@*" xlink:title="mulle&#45;stacktrace">
<polygon fill="lightgrey" stroke="black" points="284,-414 149,-414 149,-378 284,-378 284,-414"/>
<text text-anchor="middle" x="216.5" y="-392.3" font-family="Times,serif" font-size="14.00">mulle&#45;stacktrace</text>
</a>
</g>
</g>
<!-- mulle&#45;core&#45;&gt;mulle&#45;stacktrace -->
<g id="edge22" class="edge">
<title>mulle&#45;core&#45;&gt;mulle&#45;stacktrace</title>
<path fill="none" stroke="black" d="M48.8,-755.95C55.6,-691.34 81.68,-472.8 128,-423 131.56,-419.17 135.66,-415.88 140.08,-413.05"/>
<polygon fill="black" stroke="black" points="141.89,-416.05 148.96,-408.16 138.51,-409.92 141.89,-416.05"/>
</g>
<!-- mulle&#45;storage -->
<g id="node24" class="node">
<title>mulle&#45;storage</title>
<g id="a_node24"><a xlink:href="https://github.com/mulle-c/mulle-storage@*" xlink:title="mulle&#45;storage">
<polygon fill="lightgrey" stroke="black" points="274,-360 159,-360 159,-324 274,-324 274,-360"/>
<text text-anchor="middle" x="216.5" y="-338.3" font-family="Times,serif" font-size="14.00">mulle&#45;storage</text>
</a>
</g>
</g>
<!-- mulle&#45;core&#45;&gt;mulle&#45;storage -->
<g id="edge23" class="edge">
<title>mulle&#45;core&#45;&gt;mulle&#45;storage</title>
<path fill="none" stroke="black" d="M48.22,-755.7C53.31,-684.57 75.14,-427.54 128,-369 133.82,-362.55 141.14,-357.63 149.06,-353.87"/>
<polygon fill="black" stroke="black" points="150.64,-357 158.57,-349.97 147.99,-350.53 150.64,-357"/>
</g>
<!-- mulle&#45;thread -->
<g id="node25" class="node">
<title>mulle&#45;thread</title>
<g id="a_node25"><a xlink:href="https://github.com/mulle-concurrent/mulle-thread@*" xlink:title="mulle&#45;thread">
<polygon fill="lightgrey" stroke="black" points="270.5,-306 162.5,-306 162.5,-270 270.5,-270 270.5,-306"/>
<text text-anchor="middle" x="216.5" y="-284.3" font-family="Times,serif" font-size="14.00">mulle&#45;thread</text>
</a>
</g>
</g>
<!-- mulle&#45;core&#45;&gt;mulle&#45;thread -->
<g id="edge24" class="edge">
<title>mulle&#45;core&#45;&gt;mulle&#45;thread</title>
<path fill="none" stroke="black" d="M47.74,-755.94C51.22,-679.4 68.43,-382.5 128,-315 134.63,-307.49 143.29,-302.04 152.59,-298.09"/>
<polygon fill="black" stroke="black" points="153.86,-301.36 162.05,-294.63 151.45,-294.78 153.86,-301.36"/>
</g>
<!-- mulle&#45;time -->
<g id="node26" class="node">
<title>mulle&#45;time</title>
<g id="a_node26"><a xlink:href="https://github.com/mulle-core/mulle-time@*" xlink:title="mulle&#45;time">
<polygon fill="lightgrey" stroke="black" points="263,-252 170,-252 170,-216 263,-216 263,-252"/>
<text text-anchor="middle" x="216.5" y="-230.3" font-family="Times,serif" font-size="14.00">mulle&#45;time</text>
</a>
</g>
</g>
<!-- mulle&#45;core&#45;&gt;mulle&#45;time -->
<g id="edge25" class="edge">
<title>mulle&#45;core&#45;&gt;mulle&#45;time</title>
<path fill="none" stroke="black" d="M47.37,-755.81C49.42,-673.59 61.79,-337.4 128,-261 136.3,-251.43 147.91,-245.2 159.97,-241.16"/>
<polygon fill="black" stroke="black" points="161.03,-244.49 169.68,-238.36 159.1,-237.76 161.03,-244.49"/>
</g>
<!-- mulle&#45;unicode -->
<g id="node27" class="node">
<title>mulle&#45;unicode</title>
<g id="a_node27"><a xlink:href="https://github.com/mulle-c/mulle-unicode@*" xlink:title="mulle&#45;unicode">
<polygon fill="lightgrey" stroke="black" points="274.5,-198 158.5,-198 158.5,-162 274.5,-162 274.5,-198"/>
<text text-anchor="middle" x="216.5" y="-176.3" font-family="Times,serif" font-size="14.00">mulle&#45;unicode</text>
</a>
</g>
</g>
<!-- mulle&#45;core&#45;&gt;mulle&#45;unicode -->
<g id="edge26" class="edge">
<title>mulle&#45;core&#45;&gt;mulle&#45;unicode</title>
<path fill="none" stroke="black" d="M47.07,-755.99C47.77,-668.92 55.04,-292.45 128,-207 133.64,-200.4 140.86,-195.38 148.72,-191.58"/>
<polygon fill="black" stroke="black" points="150.3,-194.71 158.19,-187.65 147.61,-188.25 150.3,-194.71"/>
</g>
<!-- mulle&#45;url -->
<g id="node28" class="node">
<title>mulle&#45;url</title>
<g id="a_node28"><a xlink:href="https://github.com/mulle-c/mulle-url@*" xlink:title="mulle&#45;url">
<polygon fill="lightgrey" stroke="black" points="257,-144 176,-144 176,-108 257,-108 257,-144"/>
<text text-anchor="middle" x="216.5" y="-122.3" font-family="Times,serif" font-size="14.00">mulle&#45;url</text>
</a>
</g>
</g>
<!-- mulle&#45;core&#45;&gt;mulle&#45;url -->
<g id="edge27" class="edge">
<title>mulle&#45;core&#45;&gt;mulle&#45;url</title>
<path fill="none" stroke="black" d="M46.82,-755.84C46.28,-663.56 48.36,-247.44 128,-153 137.58,-141.64 151.82,-134.98 166.05,-131.1"/>
<polygon fill="black" stroke="black" points="166.88,-134.5 175.83,-128.83 165.3,-127.68 166.88,-134.5"/>
</g>
<!-- mulle&#45;utf -->
<g id="node29" class="node">
<title>mulle&#45;utf</title>
<g id="a_node29"><a xlink:href="https://github.com/mulle-c/mulle-utf@*" xlink:title="mulle&#45;utf">
<polygon fill="lightgrey" stroke="black" points="257,-90 176,-90 176,-54 257,-54 257,-90"/>
<text text-anchor="middle" x="216.5" y="-68.3" font-family="Times,serif" font-size="14.00">mulle&#45;utf</text>
</a>
</g>
</g>
<!-- mulle&#45;core&#45;&gt;mulle&#45;utf -->
<g id="edge28" class="edge">
<title>mulle&#45;core&#45;&gt;mulle&#45;utf</title>
<path fill="none" stroke="black" d="M46.61,-755.89C44.9,-659.01 41.6,-202.53 128,-99 137.52,-87.6 151.74,-80.92 165.97,-77.04"/>
<polygon fill="black" stroke="black" points="166.81,-80.44 175.77,-74.78 165.24,-73.62 166.81,-80.44"/>
</g>
<!-- mulle&#45;vararg -->
<g id="node30" class="node">
<title>mulle&#45;vararg</title>
<g id="a_node30"><a xlink:href="https://github.com/mulle-c/mulle-vararg@*" xlink:title="mulle&#45;vararg">
<polygon fill="lightgrey" stroke="black" points="270.5,-36 162.5,-36 162.5,0 270.5,0 270.5,-36"/>
<text text-anchor="middle" x="216.5" y="-14.3" font-family="Times,serif" font-size="14.00">mulle&#45;vararg</text>
</a>
</g>
</g>
<!-- mulle&#45;core&#45;&gt;mulle&#45;vararg -->
<g id="edge29" class="edge">
<title>mulle&#45;core&#45;&gt;mulle&#45;vararg</title>
<path fill="none" stroke="black" d="M47.84,-755.77C52.95,-648.45 81.18,-101.61 128,-45 134.46,-37.19 143.13,-31.6 152.5,-27.6"/>
<polygon fill="black" stroke="black" points="153.87,-30.83 162.06,-24.11 151.47,-24.25 153.87,-30.83"/>
</g>
</g>
</svg>
