<?xml version="1.0" encoding="UTF-8" standalone="no"?>
<!DOCTYPE svg PUBLIC "-//W3C//DTD SVG 1.1//EN"
 "http://www.w3.org/Graphics/SVG/1.1/DTD/svg11.dtd">
<!-- Generated by graphviz version 2.43.0 (0)
 -->
<!-- Title: sourcetree Pages: 1 -->
<svg width="313pt" height="1610pt"
 viewBox="0.00 0.00 313.00 1610.00" xmlns="http://www.w3.org/2000/svg" xmlns:xlink="http://www.w3.org/1999/xlink">
<g id="graph0" class="graph" transform="scale(1 1) rotate(0) translate(4 1606)">
<title>sourcetree</title>
<polygon fill="white" stroke="transparent" points="-4,4 -4,-1606 309,-1606 309,4 -4,4"/>
<!-- mulle&#45;core -->
<g id="node1" class="node">
<title>mulle&#45;core</title>
<polygon fill="yellow" stroke="black" points="92,-819 0,-819 0,-783 92,-783 92,-819"/>
<text text-anchor="middle" x="46" y="-797.3" font-family="Times,serif" font-size="14.00">mulle&#45;core</text>
</g>
<!-- dlfcn&#45;win32 -->
<g id="node2" class="node">
<title>dlfcn&#45;win32</title>
<g id="a_node2"><a xlink:href="https://github.com/mulle-core/dlfcn-win32@*" xlink:title="dlfcn&#45;win32">
<polygon fill="lightgrey" stroke="black" points="266.5,-1602 166.5,-1602 166.5,-1566 266.5,-1566 266.5,-1602"/>
<text text-anchor="middle" x="216.5" y="-1580.3" font-family="Times,serif" font-size="14.00">dlfcn&#45;win32</text>
</a>
</g>
</g>
<!-- mulle&#45;core&#45;&gt;dlfcn&#45;win32 -->
<g id="edge1" class="edge">
<title>mulle&#45;core&#45;&gt;dlfcn&#45;win32</title>
<path fill="none" stroke="black" d="M47.76,-819.18C52.52,-928.72 79.48,-1498.1 128,-1557 135.35,-1565.92 145.58,-1571.95 156.47,-1576.02"/>
<polygon fill="black" stroke="black" points="155.55,-1579.4 166.14,-1579.1 157.68,-1572.73 155.55,-1579.4"/>
</g>
<!-- mintomic -->
<g id="node3" class="node">
<title>mintomic</title>
<g id="a_node3"><a xlink:href="https://github.com/mulle-concurrent/mintomic" xlink:title="mintomic">
<polygon fill="lightgrey" stroke="black" points="258,-1548 175,-1548 175,-1512 258,-1512 258,-1548"/>
<text text-anchor="middle" x="216.5" y="-1526.3" font-family="Times,serif" font-size="14.00">mintomic</text>
</a>
</g>
</g>
<!-- mulle&#45;core&#45;&gt;mintomic -->
<g id="edge2" class="edge">
<title>mulle&#45;core&#45;&gt;mintomic</title>
<path fill="none" stroke="black" d="M47.92,-819.23C53.4,-924.19 82.87,-1448.68 128,-1503 137.24,-1514.12 150.95,-1520.75 164.8,-1524.67"/>
<polygon fill="black" stroke="black" points="164.3,-1528.15 174.84,-1527.07 165.93,-1521.34 164.3,-1528.15"/>
</g>
<!-- mulle&#45;aba -->
<g id="node4" class="node">
<title>mulle&#45;aba</title>
<g id="a_node4"><a xlink:href="https://github.com/mulle-concurrent/mulle-aba@*" xlink:title="mulle&#45;aba">
<polygon fill="lightgrey" stroke="black" points="259.5,-1494 173.5,-1494 173.5,-1458 259.5,-1458 259.5,-1494"/>
<text text-anchor="middle" x="216.5" y="-1472.3" font-family="Times,serif" font-size="14.00">mulle&#45;aba</text>
</a>
</g>
</g>
<!-- mulle&#45;core&#45;&gt;mulle&#45;aba -->
<g id="edge3" class="edge">
<title>mulle&#45;core&#45;&gt;mulle&#45;aba</title>
<path fill="none" stroke="black" d="M46.71,-819.01C45.58,-913.34 44.94,-1349.97 128,-1449 136.96,-1459.68 150.05,-1466.22 163.39,-1470.19"/>
<polygon fill="black" stroke="black" points="162.54,-1473.58 173.1,-1472.65 164.26,-1466.8 162.54,-1473.58"/>
</g>
<!-- mulle&#45;allocator -->
<g id="node5" class="node">
<title>mulle&#45;allocator</title>
<g id="a_node5"><a xlink:href="https://github.com/mulle-c/mulle-allocator@*" xlink:title="mulle&#45;allocator">
<polygon fill="lightgrey" stroke="black" points="278,-1440 155,-1440 155,-1404 278,-1404 278,-1440"/>
<text text-anchor="middle" x="216.5" y="-1418.3" font-family="Times,serif" font-size="14.00">mulle&#45;allocator</text>
</a>
</g>
</g>
<!-- mulle&#45;core&#45;&gt;mulle&#45;allocator -->
<g id="edge4" class="edge">
<title>mulle&#45;core&#45;&gt;mulle&#45;allocator</title>
<path fill="none" stroke="black" d="M46.94,-819.26C47.02,-909.3 51.75,-1305.12 128,-1395 132.81,-1400.67 138.78,-1405.17 145.33,-1408.73"/>
<polygon fill="black" stroke="black" points="144.01,-1411.98 154.56,-1413.04 146.97,-1405.64 144.01,-1411.98"/>
</g>
<!-- mulle&#45;buffer -->
<g id="node6" class="node">
<title>mulle&#45;buffer</title>
<g id="a_node6"><a xlink:href="https://github.com/mulle-c/mulle-buffer@*" xlink:title="mulle&#45;buffer">
<polygon fill="lightgrey" stroke="black" points="268.5,-1386 164.5,-1386 164.5,-1350 268.5,-1350 268.5,-1386"/>
<text text-anchor="middle" x="216.5" y="-1364.3" font-family="Times,serif" font-size="14.00">mulle&#45;buffer</text>
</a>
</g>
</g>
<!-- mulle&#45;core&#45;&gt;mulle&#45;buffer -->
<g id="edge5" class="edge">
<title>mulle&#45;core&#45;&gt;mulle&#45;buffer</title>
<path fill="none" stroke="black" d="M47.22,-819.28C48.59,-904.28 58.47,-1260.14 128,-1341 134.99,-1349.13 144.37,-1354.85 154.4,-1358.87"/>
<polygon fill="black" stroke="black" points="153.56,-1362.28 164.15,-1362.22 155.83,-1355.66 153.56,-1362.28"/>
</g>
<!-- mulle&#45;c11 -->
<g id="node7" class="node">
<title>mulle&#45;c11</title>
<g id="a_node7"><a xlink:href="https://github.com/mulle-c/mulle-c11@*" xlink:title="mulle&#45;c11">
<polygon fill="lightgrey" stroke="black" points="259.5,-1332 173.5,-1332 173.5,-1296 259.5,-1296 259.5,-1332"/>
<text text-anchor="middle" x="216.5" y="-1310.3" font-family="Times,serif" font-size="14.00">mulle&#45;c11</text>
</a>
</g>
</g>
<!-- mulle&#45;core&#45;&gt;mulle&#45;c11 -->
<g id="edge6" class="edge">
<title>mulle&#45;core&#45;&gt;mulle&#45;c11</title>
<path fill="none" stroke="black" d="M47.54,-819.03C50.29,-898.29 65.09,-1215.03 128,-1287 137.09,-1297.4 150.08,-1303.85 163.29,-1307.83"/>
<polygon fill="black" stroke="black" points="162.8,-1311.32 173.36,-1310.42 164.55,-1304.54 162.8,-1311.32"/>
</g>
<!-- mulle&#45;concurrent -->
<g id="node8" class="node">
<title>mulle&#45;concurrent</title>
<g id="a_node8"><a xlink:href="https://github.com/mulle-concurrent/mulle-concurrent@*" xlink:title="mulle&#45;concurrent">
<polygon fill="lightgrey" stroke="black" points="286,-1278 147,-1278 147,-1242 286,-1242 286,-1278"/>
<text text-anchor="middle" x="216.5" y="-1256.3" font-family="Times,serif" font-size="14.00">mulle&#45;concurrent</text>
</a>
</g>
</g>
<!-- mulle&#45;core&#45;&gt;mulle&#45;concurrent -->
<g id="edge7" class="edge">
<title>mulle&#45;core&#45;&gt;mulle&#45;concurrent</title>
<path fill="none" stroke="black" d="M47.97,-819.24C52.24,-893.22 71.81,-1170.01 128,-1233 131.06,-1236.43 134.54,-1239.43 138.32,-1242.05"/>
<polygon fill="black" stroke="black" points="136.61,-1245.1 146.99,-1247.21 140.18,-1239.09 136.61,-1245.1"/>
</g>
<!-- mulle&#45;container&#45;debug -->
<g id="node9" class="node">
<title>mulle&#45;container&#45;debug</title>
<g id="a_node9"><a xlink:href="https://github.com/mulle-c/mulle-container-debug@*" xlink:title="mulle&#45;container&#45;debug">
<polygon fill="lightgrey" stroke="black" points="305,-1224 128,-1224 128,-1188 305,-1188 305,-1224"/>
<text text-anchor="middle" x="216.5" y="-1202.3" font-family="Times,serif" font-size="14.00">mulle&#45;container&#45;debug</text>
</a>
</g>
</g>
<!-- mulle&#45;core&#45;&gt;mulle&#45;container&#45;debug -->
<g id="edge9" class="edge">
<title>mulle&#45;core&#45;&gt;mulle&#45;container&#45;debug</title>
<path fill="none" stroke="black" d="M48.48,-819.01C54.38,-886.7 78.38,-1124.79 128,-1179 128.78,-1179.85 129.58,-1180.67 130.41,-1181.47"/>
<polygon fill="black" stroke="black" points="128.48,-1184.41 138.46,-1187.98 132.88,-1178.97 128.48,-1184.41"/>
</g>
<!-- mulle&#45;container -->
<g id="node10" class="node">
<title>mulle&#45;container</title>
<g id="a_node10"><a xlink:href="https://github.com/mulle-c/mulle-container@*" xlink:title="mulle&#45;container">
<polygon fill="lightgrey" stroke="black" points="280.5,-1170 152.5,-1170 152.5,-1134 280.5,-1134 280.5,-1170"/>
<text text-anchor="middle" x="216.5" y="-1148.3" font-family="Times,serif" font-size="14.00">mulle&#45;container</text>
</a>
</g>
</g>
<!-- mulle&#45;core&#45;&gt;mulle&#45;container -->
<g id="edge8" class="edge">
<title>mulle&#45;core&#45;&gt;mulle&#45;container</title>
<path fill="none" stroke="black" d="M49.21,-819.36C57.01,-881.05 85.04,-1079.64 128,-1125 132.38,-1129.62 137.52,-1133.46 143.09,-1136.64"/>
<polygon fill="black" stroke="black" points="141.63,-1139.82 152.14,-1141.12 144.74,-1133.55 141.63,-1139.82"/>
</g>
<!-- mulle&#45;data -->
<g id="node11" class="node">
<title>mulle&#45;data</title>
<g id="a_node11"><a xlink:href="https://github.com/mulle-c/mulle-data@*" xlink:title="mulle&#45;data">
<polygon fill="lightgrey" stroke="black" points="262.5,-1116 170.5,-1116 170.5,-1080 262.5,-1080 262.5,-1116"/>
<text text-anchor="middle" x="216.5" y="-1094.3" font-family="Times,serif" font-size="14.00">mulle&#45;data</text>
</a>
</g>
</g>
<!-- mulle&#45;core&#45;&gt;mulle&#45;data -->
<g id="edge10" class="edge">
<title>mulle&#45;core&#45;&gt;mulle&#45;data</title>
<path fill="none" stroke="black" d="M46.93,-819.33C47.77,-867.58 56.82,-999.26 128,-1071 136.84,-1079.9 148.54,-1085.89 160.5,-1089.9"/>
<polygon fill="black" stroke="black" points="159.52,-1093.26 170.1,-1092.71 161.49,-1086.54 159.52,-1093.26"/>
</g>
<!-- mulle&#45;dlfcn -->
<g id="node12" class="node">
<title>mulle&#45;dlfcn</title>
<g id="a_node12"><a xlink:href="https://github.com/mulle-core/mulle-dlfcn@*" xlink:title="mulle&#45;dlfcn">
<polygon fill="lightgrey" stroke="black" points="264.5,-1062 168.5,-1062 168.5,-1026 264.5,-1026 264.5,-1062"/>
<text text-anchor="middle" x="216.5" y="-1040.3" font-family="Times,serif" font-size="14.00">mulle&#45;dlfcn</text>
</a>
</g>
</g>
<!-- mulle&#45;core&#45;&gt;mulle&#45;dlfcn -->
<g id="edge11" class="edge">
<title>mulle&#45;core&#45;&gt;mulle&#45;dlfcn</title>
<path fill="none" stroke="black" d="M48.53,-819.29C52.97,-860.63 69.56,-961.93 128,-1017 136.5,-1025.01 147.33,-1030.65 158.45,-1034.61"/>
<polygon fill="black" stroke="black" points="157.66,-1038.03 168.25,-1037.68 159.75,-1031.35 157.66,-1038.03"/>
</g>
<!-- mulle&#45;dtostr -->
<g id="node13" class="node">
<title>mulle&#45;dtostr</title>
<g id="a_node13"><a xlink:href="https://github.com/mulle-core/mulle-dtostr@*" xlink:title="mulle&#45;dtostr">
<polygon fill="lightgrey" stroke="black" points="268.5,-1008 164.5,-1008 164.5,-972 268.5,-972 268.5,-1008"/>
<text text-anchor="middle" x="216.5" y="-986.3" font-family="Times,serif" font-size="14.00">mulle&#45;dtostr</text>
</a>
</g>
</g>
<!-- mulle&#45;core&#45;&gt;mulle&#45;dtostr -->
<g id="edge12" class="edge">
<title>mulle&#45;core&#45;&gt;mulle&#45;dtostr</title>
<path fill="none" stroke="black" d="M51.09,-819.25C59.53,-852.73 82.07,-924.06 128,-963 135.73,-969.55 145.04,-974.52 154.65,-978.28"/>
<polygon fill="black" stroke="black" points="153.74,-981.66 164.33,-981.65 156.04,-975.05 153.74,-981.66"/>
</g>
<!-- mulle&#45;fifo -->
<g id="node14" class="node">
<title>mulle&#45;fifo</title>
<g id="a_node14"><a xlink:href="https://github.com/mulle-concurrent/mulle-fifo@*" xlink:title="mulle&#45;fifo">
<polygon fill="lightgrey" stroke="black" points="258,-954 175,-954 175,-918 258,-918 258,-954"/>
<text text-anchor="middle" x="216.5" y="-932.3" font-family="Times,serif" font-size="14.00">mulle&#45;fifo</text>
</a>
</g>
</g>
<!-- mulle&#45;core&#45;&gt;mulle&#45;fifo -->
<g id="edge13" class="edge">
<title>mulle&#45;core&#45;&gt;mulle&#45;fifo</title>
<path fill="none" stroke="black" d="M55.9,-819.09C68.63,-843.11 94.27,-885.26 128,-909 138.98,-916.73 152.24,-922.3 165.08,-926.29"/>
<polygon fill="black" stroke="black" points="164.2,-929.68 174.78,-929.04 166.11,-922.94 164.2,-929.68"/>
</g>
<!-- mulle&#45;fprintf -->
<g id="node15" class="node">
<title>mulle&#45;fprintf</title>
<g id="a_node15"><a xlink:href="https://github.com/mulle-core/mulle-fprintf@*" xlink:title="mulle&#45;fprintf">
<polygon fill="lightgrey" stroke="black" points="270,-900 163,-900 163,-864 270,-864 270,-900"/>
<text text-anchor="middle" x="216.5" y="-878.3" font-family="Times,serif" font-size="14.00">mulle&#45;fprintf</text>
</a>
</g>
</g>
<!-- mulle&#45;core&#45;&gt;mulle&#45;fprintf -->
<g id="edge14" class="edge">
<title>mulle&#45;core&#45;&gt;mulle&#45;fprintf</title>
<path fill="none" stroke="black" d="M70.37,-819.22C85.99,-830.72 107.39,-845.21 128,-855 135.93,-858.77 144.51,-862.17 153.09,-865.18"/>
<polygon fill="black" stroke="black" points="152.15,-868.56 162.74,-868.42 154.37,-861.92 152.15,-868.56"/>
</g>
<!-- mulle&#45;http -->
<g id="node16" class="node">
<title>mulle&#45;http</title>
<g id="a_node16"><a xlink:href="https://github.com/mulle-c/mulle-http@*" xlink:title="mulle&#45;http">
<polygon fill="lightgrey" stroke="black" points="262,-846 171,-846 171,-810 262,-810 262,-846"/>
<text text-anchor="middle" x="216.5" y="-824.3" font-family="Times,serif" font-size="14.00">mulle&#45;http</text>
</a>
</g>
</g>
<!-- mulle&#45;core&#45;&gt;mulle&#45;http -->
<g id="edge15" class="edge">
<title>mulle&#45;core&#45;&gt;mulle&#45;http</title>
<path fill="none" stroke="black" d="M92.15,-808.24C113.29,-811.62 138.64,-815.68 160.85,-819.24"/>
<polygon fill="black" stroke="black" points="160.38,-822.71 170.8,-820.84 161.48,-815.8 160.38,-822.71"/>
</g>
<!-- mulle&#45;linkedlist -->
<g id="node17" class="node">
<title>mulle&#45;linkedlist</title>
<g id="a_node17"><a xlink:href="https://github.com/mulle-concurrent/mulle-linkedlist@*" xlink:title="mulle&#45;linkedlist">
<polygon fill="lightgrey" stroke="black" points="280,-792 153,-792 153,-756 280,-756 280,-792"/>
<text text-anchor="middle" x="216.5" y="-770.3" font-family="Times,serif" font-size="14.00">mulle&#45;linkedlist</text>
</a>
</g>
</g>
<!-- mulle&#45;core&#45;&gt;mulle&#45;linkedlist -->
<g id="edge16" class="edge">
<title>mulle&#45;core&#45;&gt;mulle&#45;linkedlist</title>
<path fill="none" stroke="black" d="M92.15,-793.76C107.72,-791.27 125.57,-788.41 142.77,-785.65"/>
<polygon fill="black" stroke="black" points="143.48,-789.09 152.8,-784.05 142.37,-782.17 143.48,-789.09"/>
</g>
<!-- mulle&#45;mmap -->
<g id="node18" class="node">
<title>mulle&#45;mmap</title>
<g id="a_node18"><a xlink:href="https://github.com/mulle-core/mulle-mmap@*" xlink:title="mulle&#45;mmap">
<polygon fill="lightgrey" stroke="black" points="269,-738 164,-738 164,-702 269,-702 269,-738"/>
<text text-anchor="middle" x="216.5" y="-716.3" font-family="Times,serif" font-size="14.00">mulle&#45;mmap</text>
</a>
</g>
</g>
<!-- mulle&#45;core&#45;&gt;mulle&#45;mmap -->
<g id="edge17" class="edge">
<title>mulle&#45;core&#45;&gt;mulle&#45;mmap</title>
<path fill="none" stroke="black" d="M70.37,-782.78C85.99,-771.28 107.39,-756.79 128,-747 136.22,-743.09 145.15,-739.58 154.05,-736.48"/>
<polygon fill="black" stroke="black" points="155.28,-739.76 163.66,-733.29 153.07,-733.12 155.28,-739.76"/>
</g>
<!-- mulle&#45;multififo -->
<g id="node19" class="node">
<title>mulle&#45;multififo</title>
<g id="a_node19"><a xlink:href="https://github.com/mulle-concurrent/mulle-multififo@*" xlink:title="mulle&#45;multififo">
<polygon fill="lightgrey" stroke="black" points="277,-684 156,-684 156,-648 277,-648 277,-684"/>
<text text-anchor="middle" x="216.5" y="-662.3" font-family="Times,serif" font-size="14.00">mulle&#45;multififo</text>
</a>
</g>
</g>
<!-- mulle&#45;core&#45;&gt;mulle&#45;multififo -->
<g id="edge18" class="edge">
<title>mulle&#45;core&#45;&gt;mulle&#45;multififo</title>
<path fill="none" stroke="black" d="M55.9,-782.91C68.63,-758.89 94.27,-716.74 128,-693 133.59,-689.07 139.77,-685.69 146.19,-682.8"/>
<polygon fill="black" stroke="black" points="147.78,-685.93 155.71,-678.9 145.13,-679.45 147.78,-685.93"/>
</g>
<!-- mulle&#45;rbtree -->
<g id="node20" class="node">
<title>mulle&#45;rbtree</title>
<g id="a_node20"><a xlink:href="https://github.com/mulle-c/mulle-rbtree@*" xlink:title="mulle&#45;rbtree">
<polygon fill="lightgrey" stroke="black" points="269.5,-630 163.5,-630 163.5,-594 269.5,-594 269.5,-630"/>
<text text-anchor="middle" x="216.5" y="-608.3" font-family="Times,serif" font-size="14.00">mulle&#45;rbtree</text>
</a>
</g>
</g>
<!-- mulle&#45;core&#45;&gt;mulle&#45;rbtree -->
<g id="edge19" class="edge">
<title>mulle&#45;core&#45;&gt;mulle&#45;rbtree</title>
<path fill="none" stroke="black" d="M51.09,-782.75C59.53,-749.27 82.07,-677.94 128,-639 135.55,-632.6 144.6,-627.72 153.98,-623.99"/>
<polygon fill="black" stroke="black" points="155.17,-627.28 163.42,-620.64 152.82,-620.68 155.17,-627.28"/>
</g>
<!-- mulle&#45;rbtree&#45;debug -->
<g id="node21" class="node">
<title>mulle&#45;rbtree&#45;debug</title>
<g id="a_node21"><a xlink:href="https://github.com/mulle-core/mulle-rbtree-debug@*" xlink:title="mulle&#45;rbtree&#45;debug">
<polygon fill="lightgrey" stroke="black" points="294,-576 139,-576 139,-540 294,-540 294,-576"/>
<text text-anchor="middle" x="216.5" y="-554.3" font-family="Times,serif" font-size="14.00">mulle&#45;rbtree&#45;debug</text>
</a>
</g>
</g>
<!-- mulle&#45;core&#45;&gt;mulle&#45;rbtree&#45;debug -->
<g id="edge20" class="edge">
<title>mulle&#45;core&#45;&gt;mulle&#45;rbtree&#45;debug</title>
<path fill="none" stroke="black" d="M48.53,-782.71C52.97,-741.37 69.56,-640.07 128,-585 129.12,-583.94 130.28,-582.93 131.48,-581.95"/>
<polygon fill="black" stroke="black" points="133.68,-584.69 139.85,-576.08 129.66,-578.96 133.68,-584.69"/>
</g>
<!-- mulle&#45;regex -->
<g id="node22" class="node">
<title>mulle&#45;regex</title>
<g id="a_node22"><a xlink:href="https://github.com/mulle-c/mulle-regex@*" xlink:title="mulle&#45;regex">
<polygon fill="lightgrey" stroke="black" points="267,-522 166,-522 166,-486 267,-486 267,-522"/>
<text text-anchor="middle" x="216.5" y="-500.3" font-family="Times,serif" font-size="14.00">mulle&#45;regex</text>
</a>
</g>
</g>
<!-- mulle&#45;core&#45;&gt;mulle&#45;regex -->
<g id="edge21" class="edge">
<title>mulle&#45;core&#45;&gt;mulle&#45;regex</title>
<path fill="none" stroke="black" d="M46.93,-782.67C47.77,-734.42 56.82,-602.74 128,-531 135.72,-523.22 145.62,-517.68 155.97,-513.72"/>
<polygon fill="black" stroke="black" points="157.18,-517.01 165.55,-510.52 154.96,-510.37 157.18,-517.01"/>
</g>
<!-- mulle&#45;slug -->
<g id="node23" class="node">
<title>mulle&#45;slug</title>
<g id="a_node23"><a xlink:href="https://github.com/mulle-c/mulle-slug@*" xlink:title="mulle&#45;slug">
<polygon fill="lightgrey" stroke="black" points="262,-468 171,-468 171,-432 262,-432 262,-468"/>
<text text-anchor="middle" x="216.5" y="-446.3" font-family="Times,serif" font-size="14.00">mulle&#45;slug</text>
</a>
</g>
</g>
<!-- mulle&#45;core&#45;&gt;mulle&#45;slug -->
<g id="edge22" class="edge">
<title>mulle&#45;core&#45;&gt;mulle&#45;slug</title>
<path fill="none" stroke="black" d="M49.21,-782.64C57.01,-720.95 85.04,-522.36 128,-477 136.8,-467.71 148.71,-461.59 160.92,-457.57"/>
<polygon fill="black" stroke="black" points="162.05,-460.89 170.71,-454.78 160.13,-454.16 162.05,-460.89"/>
</g>
<!-- mulle&#45;sprintf -->
<g id="node24" class="node">
<title>mulle&#45;sprintf</title>
<g id="a_node24"><a xlink:href="https://github.com/mulle-core/mulle-sprintf@*" xlink:title="mulle&#45;sprintf">
<polygon fill="lightgrey" stroke="black" points="271,-414 162,-414 162,-378 271,-378 271,-414"/>
<text text-anchor="middle" x="216.5" y="-392.3" font-family="Times,serif" font-size="14.00">mulle&#45;sprintf</text>
</a>
</g>
</g>
<!-- mulle&#45;core&#45;&gt;mulle&#45;sprintf -->
<g id="edge23" class="edge">
<title>mulle&#45;core&#45;&gt;mulle&#45;sprintf</title>
<path fill="none" stroke="black" d="M48.48,-782.99C54.38,-715.3 78.38,-477.21 128,-423 134.61,-415.78 143.11,-410.47 152.2,-406.57"/>
<polygon fill="black" stroke="black" points="153.68,-409.75 161.84,-402.99 151.24,-403.19 153.68,-409.75"/>
</g>
<!-- mulle&#45;storage -->
<g id="node25" class="node">
<title>mulle&#45;storage</title>
<g id="a_node25"><a xlink:href="https://github.com/mulle-c/mulle-storage@*" xlink:title="mulle&#45;storage">
<polygon fill="lightgrey" stroke="black" points="274,-360 159,-360 159,-324 274,-324 274,-360"/>
<text text-anchor="middle" x="216.5" y="-338.3" font-family="Times,serif" font-size="14.00">mulle&#45;storage</text>
</a>
</g>
</g>
<!-- mulle&#45;core&#45;&gt;mulle&#45;storage -->
<g id="edge24" class="edge">
<title>mulle&#45;core&#45;&gt;mulle&#45;storage</title>
<path fill="none" stroke="black" d="M47.97,-782.76C52.24,-708.78 71.81,-431.99 128,-369 133.92,-362.36 141.43,-357.34 149.56,-353.54"/>
<polygon fill="black" stroke="black" points="150.98,-356.74 158.94,-349.74 148.36,-350.25 150.98,-356.74"/>
</g>
<!-- mulle&#45;thread -->
<g id="node26" class="node">
<title>mulle&#45;thread</title>
<g id="a_node26"><a xlink:href="https://github.com/mulle-concurrent/mulle-thread@*" xlink:title="mulle&#45;thread">
<polygon fill="lightgrey" stroke="black" points="270.5,-306 162.5,-306 162.5,-270 270.5,-270 270.5,-306"/>
<text text-anchor="middle" x="216.5" y="-284.3" font-family="Times,serif" font-size="14.00">mulle&#45;thread</text>
</a>
</g>
</g>
<!-- mulle&#45;core&#45;&gt;mulle&#45;thread -->
<g id="edge25" class="edge">
<title>mulle&#45;core&#45;&gt;mulle&#45;thread</title>
<path fill="none" stroke="black" d="M47.54,-782.97C50.29,-703.71 65.09,-386.97 128,-315 134.67,-307.37 143.44,-301.86 152.86,-297.9"/>
<polygon fill="black" stroke="black" points="154.23,-301.13 162.44,-294.43 151.84,-294.55 154.23,-301.13"/>
</g>
<!-- mulle&#45;time -->
<g id="node27" class="node">
<title>mulle&#45;time</title>
<g id="a_node27"><a xlink:href="https://github.com/mulle-core/mulle-time@*" xlink:title="mulle&#45;time">
<polygon fill="lightgrey" stroke="black" points="263,-252 170,-252 170,-216 263,-216 263,-252"/>
<text text-anchor="middle" x="216.5" y="-230.3" font-family="Times,serif" font-size="14.00">mulle&#45;time</text>
</a>
</g>
</g>
<!-- mulle&#45;core&#45;&gt;mulle&#45;time -->
<g id="edge26" class="edge">
<title>mulle&#45;core&#45;&gt;mulle&#45;time</title>
<path fill="none" stroke="black" d="M47.22,-782.72C48.59,-697.72 58.47,-341.86 128,-261 136.26,-251.39 147.86,-245.15 159.91,-241.11"/>
<polygon fill="black" stroke="black" points="160.98,-244.44 169.63,-238.32 159.05,-237.72 160.98,-244.44"/>
</g>
<!-- mulle&#45;unicode -->
<g id="node28" class="node">
<title>mulle&#45;unicode</title>
<g id="a_node28"><a xlink:href="https://github.com/mulle-c/mulle-unicode@*" xlink:title="mulle&#45;unicode">
<polygon fill="lightgrey" stroke="black" points="274.5,-198 158.5,-198 158.5,-162 274.5,-162 274.5,-198"/>
<text text-anchor="middle" x="216.5" y="-176.3" font-family="Times,serif" font-size="14.00">mulle&#45;unicode</text>
</a>
</g>
</g>
<!-- mulle&#45;core&#45;&gt;mulle&#45;unicode -->
<g id="edge27" class="edge">
<title>mulle&#45;core&#45;&gt;mulle&#45;unicode</title>
<path fill="none" stroke="black" d="M46.94,-782.74C47.02,-692.7 51.75,-296.88 128,-207 133.62,-200.38 140.82,-195.35 148.68,-191.54"/>
<polygon fill="black" stroke="black" points="150.26,-194.68 158.15,-187.61 147.57,-188.21 150.26,-194.68"/>
</g>
<!-- mulle&#45;url -->
<g id="node29" class="node">
<title>mulle&#45;url</title>
<g id="a_node29"><a xlink:href="https://github.com/mulle-c/mulle-url@*" xlink:title="mulle&#45;url">
<polygon fill="lightgrey" stroke="black" points="257,-144 176,-144 176,-108 257,-108 257,-144"/>
<text text-anchor="middle" x="216.5" y="-122.3" font-family="Times,serif" font-size="14.00">mulle&#45;url</text>
</a>
</g>
</g>
<!-- mulle&#45;core&#45;&gt;mulle&#45;url -->
<g id="edge28" class="edge">
<title>mulle&#45;core&#45;&gt;mulle&#45;url</title>
<path fill="none" stroke="black" d="M46.71,-782.99C45.58,-688.66 44.94,-252.03 128,-153 137.55,-141.62 151.78,-134.95 166.01,-131.07"/>
<polygon fill="black" stroke="black" points="166.85,-134.47 175.8,-128.8 165.27,-127.65 166.85,-134.47"/>
</g>
<!-- mulle&#45;utf -->
<g id="node30" class="node">
<title>mulle&#45;utf</title>
<g id="a_node30"><a xlink:href="https://github.com/mulle-c/mulle-utf@*" xlink:title="mulle&#45;utf">
<polygon fill="lightgrey" stroke="black" points="257,-90 176,-90 176,-54 257,-54 257,-90"/>
<text text-anchor="middle" x="216.5" y="-68.3" font-family="Times,serif" font-size="14.00">mulle&#45;utf</text>
</a>
</g>
</g>
<!-- mulle&#45;core&#45;&gt;mulle&#45;utf -->
<g id="edge29" class="edge">
<title>mulle&#45;core&#45;&gt;mulle&#45;utf</title>
<path fill="none" stroke="black" d="M47.92,-782.77C53.4,-677.81 82.87,-153.32 128,-99 137.49,-87.57 151.71,-80.89 165.94,-77.01"/>
<polygon fill="black" stroke="black" points="166.78,-80.41 175.74,-74.75 165.21,-73.59 166.78,-80.41"/>
</g>
<!-- mulle&#45;vararg -->
<g id="node31" class="node">
<title>mulle&#45;vararg</title>
<g id="a_node31"><a xlink:href="https://github.com/mulle-c/mulle-vararg@*" xlink:title="mulle&#45;vararg">
<polygon fill="lightgrey" stroke="black" points="270.5,-36 162.5,-36 162.5,0 270.5,0 270.5,-36"/>
<text text-anchor="middle" x="216.5" y="-14.3" font-family="Times,serif" font-size="14.00">mulle&#45;vararg</text>
</a>
</g>
</g>
<!-- mulle&#45;core&#45;&gt;mulle&#45;vararg -->
<g id="edge30" class="edge">
<title>mulle&#45;core&#45;&gt;mulle&#45;vararg</title>
<path fill="none" stroke="black" d="M47.76,-782.82C52.52,-673.28 79.48,-103.9 128,-45 134.52,-37.09 143.31,-31.45 152.81,-27.44"/>
<polygon fill="black" stroke="black" points="154.27,-30.63 162.49,-23.95 151.9,-24.05 154.27,-30.63"/>
</g>
</g>
</svg>
