<?xml version="1.0" encoding="UTF-8" standalone="no"?>
<!DOCTYPE svg PUBLIC "-//W3C//DTD SVG 1.1//EN"
 "http://www.w3.org/Graphics/SVG/1.1/DTD/svg11.dtd">
<!-- Generated by graphviz version 2.43.0 (0)
 -->
<!-- Title: sourcetree Pages: 1 -->
<svg width="275pt" height="1394pt"
 viewBox="0.00 0.00 275.00 1394.00" xmlns="http://www.w3.org/2000/svg" xmlns:xlink="http://www.w3.org/1999/xlink">
<g id="graph0" class="graph" transform="scale(1 1) rotate(0) translate(4 1390)">
<title>sourcetree</title>
<polygon fill="white" stroke="transparent" points="-4,4 -4,-1390 271,-1390 271,4 -4,4"/>
<!-- mulle&#45;core -->
<g id="node1" class="node">
<title>mulle&#45;core</title>
<polygon fill="yellow" stroke="black" points="92,-711 0,-711 0,-675 92,-675 92,-711"/>
<text text-anchor="middle" x="46" y="-689.3" font-family="Times,serif" font-size="14.00">mulle&#45;core</text>
</g>
<!-- mintomic -->
<g id="node2" class="node">
<title>mintomic</title>
<g id="a_node2"><a xlink:href="https://github.com/mulle-concurrent/mintomic" xlink:title="mintomic">
<polygon fill="lightgrey" stroke="black" points="239,-1386 156,-1386 156,-1350 239,-1350 239,-1386"/>
<text text-anchor="middle" x="197.5" y="-1364.3" font-family="Times,serif" font-size="14.00">mintomic</text>
</a>
</g>
</g>
<!-- mulle&#45;core&#45;&gt;mintomic -->
<g id="edge1" class="edge">
<title>mulle&#45;core&#45;&gt;mintomic</title>
<path fill="none" stroke="black" d="M46.85,-711.2C46.42,-805.61 48.86,-1238.99 128,-1341 132.9,-1347.32 139.5,-1352.16 146.68,-1355.88"/>
<polygon fill="black" stroke="black" points="145.42,-1359.15 155.98,-1360 148.26,-1352.75 145.42,-1359.15"/>
</g>
<!-- mulle&#45;aba -->
<g id="node3" class="node">
<title>mulle&#45;aba</title>
<g id="a_node3"><a xlink:href="https://github.com/mulle-concurrent/mulle-aba@*" xlink:title="mulle&#45;aba">
<polygon fill="lightgrey" stroke="black" points="240.5,-1332 154.5,-1332 154.5,-1296 240.5,-1296 240.5,-1332"/>
<text text-anchor="middle" x="197.5" y="-1310.3" font-family="Times,serif" font-size="14.00">mulle&#45;aba</text>
</a>
</g>
</g>
<!-- mulle&#45;core&#45;&gt;mulle&#45;aba -->
<g id="edge2" class="edge">
<title>mulle&#45;core&#45;&gt;mulle&#45;aba</title>
<path fill="none" stroke="black" d="M47.08,-711.15C47.82,-800.64 55.23,-1194.28 128,-1287 132.56,-1292.81 138.54,-1297.37 145.08,-1300.95"/>
<polygon fill="black" stroke="black" points="143.72,-1304.18 154.26,-1305.25 146.69,-1297.84 143.72,-1304.18"/>
</g>
<!-- mulle&#45;allocator -->
<g id="node4" class="node">
<title>mulle&#45;allocator</title>
<g id="a_node4"><a xlink:href="https://github.com/mulle-c/mulle-allocator@*" xlink:title="mulle&#45;allocator">
<polygon fill="lightgrey" stroke="black" points="259,-1278 136,-1278 136,-1242 259,-1242 259,-1278"/>
<text text-anchor="middle" x="197.5" y="-1256.3" font-family="Times,serif" font-size="14.00">mulle&#45;allocator</text>
</a>
</g>
</g>
<!-- mulle&#45;core&#45;&gt;mulle&#45;allocator -->
<g id="edge3" class="edge">
<title>mulle&#45;core&#45;&gt;mulle&#45;allocator</title>
<path fill="none" stroke="black" d="M47.35,-711.17C49.35,-795.65 61.6,-1149.55 128,-1233 128.59,-1233.74 129.21,-1234.47 129.84,-1235.17"/>
<polygon fill="black" stroke="black" points="127.63,-1237.89 137.41,-1241.97 132.31,-1232.69 127.63,-1237.89"/>
</g>
<!-- mulle&#45;buffer -->
<g id="node5" class="node">
<title>mulle&#45;buffer</title>
<g id="a_node5"><a xlink:href="https://github.com/mulle-c/mulle-buffer@*" xlink:title="mulle&#45;buffer">
<polygon fill="lightgrey" stroke="black" points="249.5,-1224 145.5,-1224 145.5,-1188 249.5,-1188 249.5,-1224"/>
<text text-anchor="middle" x="197.5" y="-1202.3" font-family="Times,serif" font-size="14.00">mulle&#45;buffer</text>
</a>
</g>
</g>
<!-- mulle&#45;core&#45;&gt;mulle&#45;buffer -->
<g id="edge4" class="edge">
<title>mulle&#45;core&#45;&gt;mulle&#45;buffer</title>
<path fill="none" stroke="black" d="M47.69,-711.18C51.03,-790.4 67.94,-1104.77 128,-1179 130.55,-1182.15 133.52,-1184.94 136.77,-1187.4"/>
<polygon fill="black" stroke="black" points="135.01,-1190.43 145.32,-1192.87 138.79,-1184.54 135.01,-1190.43"/>
</g>
<!-- mulle&#45;c11 -->
<g id="node6" class="node">
<title>mulle&#45;c11</title>
<g id="a_node6"><a xlink:href="https://github.com/mulle-c/mulle-c11@*" xlink:title="mulle&#45;c11">
<polygon fill="lightgrey" stroke="black" points="240.5,-1170 154.5,-1170 154.5,-1134 240.5,-1134 240.5,-1170"/>
<text text-anchor="middle" x="197.5" y="-1148.3" font-family="Times,serif" font-size="14.00">mulle&#45;c11</text>
</a>
</g>
</g>
<!-- mulle&#45;core&#45;&gt;mulle&#45;c11 -->
<g id="edge5" class="edge">
<title>mulle&#45;core&#45;&gt;mulle&#45;c11</title>
<path fill="none" stroke="black" d="M48.12,-711.37C52.95,-785.27 74.31,-1059.99 128,-1125 132.64,-1130.62 138.62,-1135.08 145.11,-1138.62"/>
<polygon fill="black" stroke="black" points="143.65,-1141.8 154.19,-1142.88 146.63,-1135.46 143.65,-1141.8"/>
</g>
<!-- mulle&#45;concurrent -->
<g id="node7" class="node">
<title>mulle&#45;concurrent</title>
<g id="a_node7"><a xlink:href="https://github.com/mulle-concurrent/mulle-concurrent@*" xlink:title="mulle&#45;concurrent">
<polygon fill="lightgrey" stroke="black" points="267,-1116 128,-1116 128,-1080 267,-1080 267,-1116"/>
<text text-anchor="middle" x="197.5" y="-1094.3" font-family="Times,serif" font-size="14.00">mulle&#45;concurrent</text>
</a>
</g>
</g>
<!-- mulle&#45;core&#45;&gt;mulle&#45;concurrent -->
<g id="edge6" class="edge">
<title>mulle&#45;core&#45;&gt;mulle&#45;concurrent</title>
<path fill="none" stroke="black" d="M48.65,-711.36C55.1,-779.25 80.58,-1015.07 128,-1071 128.61,-1071.73 129.25,-1072.43 129.91,-1073.12"/>
<polygon fill="black" stroke="black" points="127.78,-1075.91 137.64,-1079.78 132.35,-1070.6 127.78,-1075.91"/>
</g>
<!-- mulle&#45;container -->
<g id="node8" class="node">
<title>mulle&#45;container</title>
<g id="a_node8"><a xlink:href="https://github.com/mulle-c/mulle-container@*" xlink:title="mulle&#45;container">
<polygon fill="lightgrey" stroke="black" points="261.5,-1062 133.5,-1062 133.5,-1026 261.5,-1026 261.5,-1062"/>
<text text-anchor="middle" x="197.5" y="-1040.3" font-family="Times,serif" font-size="14.00">mulle&#45;container</text>
</a>
</g>
</g>
<!-- mulle&#45;core&#45;&gt;mulle&#45;container -->
<g id="edge7" class="edge">
<title>mulle&#45;core&#45;&gt;mulle&#45;container</title>
<path fill="none" stroke="black" d="M49.35,-711.24C57.56,-772.55 86.8,-970.04 128,-1017 128.74,-1017.84 129.5,-1018.66 130.3,-1019.45"/>
<polygon fill="black" stroke="black" points="128.15,-1022.21 138.09,-1025.9 132.62,-1016.82 128.15,-1022.21"/>
</g>
<!-- mulle&#45;data -->
<g id="node9" class="node">
<title>mulle&#45;data</title>
<g id="a_node9"><a xlink:href="https://github.com/mulle-c/mulle-data@*" xlink:title="mulle&#45;data">
<polygon fill="lightgrey" stroke="black" points="243.5,-1008 151.5,-1008 151.5,-972 243.5,-972 243.5,-1008"/>
<text text-anchor="middle" x="197.5" y="-986.3" font-family="Times,serif" font-size="14.00">mulle&#45;data</text>
</a>
</g>
</g>
<!-- mulle&#45;core&#45;&gt;mulle&#45;data -->
<g id="edge8" class="edge">
<title>mulle&#45;core&#45;&gt;mulle&#45;data</title>
<path fill="none" stroke="black" d="M47.24,-711.04C48.85,-758.55 59.6,-888.6 128,-963 132.05,-967.4 136.9,-971.09 142.13,-974.19"/>
<polygon fill="black" stroke="black" points="140.72,-977.4 151.22,-978.87 143.92,-971.18 140.72,-977.4"/>
</g>
<!-- mulle&#45;dlfcn -->
<g id="node10" class="node">
<title>mulle&#45;dlfcn</title>
<g id="a_node10"><a xlink:href="https://github.com/mulle-core/mulle-dlfcn@*" xlink:title="mulle&#45;dlfcn">
<polygon fill="lightgrey" stroke="black" points="245.5,-954 149.5,-954 149.5,-918 245.5,-918 245.5,-954"/>
<text text-anchor="middle" x="197.5" y="-932.3" font-family="Times,serif" font-size="14.00">mulle&#45;dlfcn</text>
</a>
</g>
</g>
<!-- mulle&#45;core&#45;&gt;mulle&#45;dlfcn -->
<g id="edge9" class="edge">
<title>mulle&#45;core&#45;&gt;mulle&#45;dlfcn</title>
<path fill="none" stroke="black" d="M48.87,-711.29C53.99,-752.18 71.84,-851.89 128,-909 131.66,-912.72 135.89,-915.94 140.43,-918.73"/>
<polygon fill="black" stroke="black" points="138.97,-921.92 149.44,-923.57 142.28,-915.75 138.97,-921.92"/>
</g>
<!-- mulle&#45;fifo -->
<g id="node11" class="node">
<title>mulle&#45;fifo</title>
<g id="a_node11"><a xlink:href="https://github.com/mulle-concurrent/mulle-fifo@*" xlink:title="mulle&#45;fifo">
<polygon fill="lightgrey" stroke="black" points="239,-900 156,-900 156,-864 239,-864 239,-900"/>
<text text-anchor="middle" x="197.5" y="-878.3" font-family="Times,serif" font-size="14.00">mulle&#45;fifo</text>
</a>
</g>
</g>
<!-- mulle&#45;core&#45;&gt;mulle&#45;fifo -->
<g id="edge10" class="edge">
<title>mulle&#45;core&#45;&gt;mulle&#45;fifo</title>
<path fill="none" stroke="black" d="M51.45,-711.18C60.42,-744.23 83.7,-814.44 128,-855 133.38,-859.93 139.77,-864 146.44,-867.35"/>
<polygon fill="black" stroke="black" points="145.1,-870.58 155.65,-871.49 147.97,-864.2 145.1,-870.58"/>
</g>
<!-- mulle&#45;fprintf -->
<g id="node12" class="node">
<title>mulle&#45;fprintf</title>
<g id="a_node12"><a xlink:href="https://github.com/mulle-core/mulle-fprintf@*" xlink:title="mulle&#45;fprintf">
<polygon fill="lightgrey" stroke="black" points="251,-846 144,-846 144,-810 251,-810 251,-846"/>
<text text-anchor="middle" x="197.5" y="-824.3" font-family="Times,serif" font-size="14.00">mulle&#45;fprintf</text>
</a>
</g>
</g>
<!-- mulle&#45;core&#45;&gt;mulle&#45;fprintf -->
<g id="edge11" class="edge">
<title>mulle&#45;core&#45;&gt;mulle&#45;fprintf</title>
<path fill="none" stroke="black" d="M56.4,-711.13C69.51,-734.8 95.38,-776.13 128,-801 130.29,-802.74 132.7,-804.39 135.2,-805.94"/>
<polygon fill="black" stroke="black" points="133.55,-809.03 143.99,-810.86 136.97,-802.92 133.55,-809.03"/>
</g>
<!-- mulle&#45;http -->
<g id="node13" class="node">
<title>mulle&#45;http</title>
<g id="a_node13"><a xlink:href="https://github.com/mulle-c/mulle-http@*" xlink:title="mulle&#45;http">
<polygon fill="lightgrey" stroke="black" points="243,-792 152,-792 152,-756 243,-756 243,-792"/>
<text text-anchor="middle" x="197.5" y="-770.3" font-family="Times,serif" font-size="14.00">mulle&#45;http</text>
</a>
</g>
</g>
<!-- mulle&#45;core&#45;&gt;mulle&#45;http -->
<g id="edge12" class="edge">
<title>mulle&#45;core&#45;&gt;mulle&#45;http</title>
<path fill="none" stroke="black" d="M71.33,-711.21C87,-722.42 108.08,-736.59 128,-747 132.56,-749.38 137.37,-751.68 142.25,-753.87"/>
<polygon fill="black" stroke="black" points="141.1,-757.18 151.67,-757.92 143.86,-750.75 141.1,-757.18"/>
</g>
<!-- mulle&#45;linkedlist -->
<g id="node14" class="node">
<title>mulle&#45;linkedlist</title>
<g id="a_node14"><a xlink:href="https://github.com/mulle-concurrent/mulle-linkedlist@*" xlink:title="mulle&#45;linkedlist">
<polygon fill="lightgrey" stroke="black" points="261,-738 134,-738 134,-702 261,-702 261,-738"/>
<text text-anchor="middle" x="197.5" y="-716.3" font-family="Times,serif" font-size="14.00">mulle&#45;linkedlist</text>
</a>
</g>
</g>
<!-- mulle&#45;core&#45;&gt;mulle&#45;linkedlist -->
<g id="edge13" class="edge">
<title>mulle&#45;core&#45;&gt;mulle&#45;linkedlist</title>
<path fill="none" stroke="black" d="M92.26,-701.17C102.26,-702.98 113.1,-704.94 123.88,-706.89"/>
<polygon fill="black" stroke="black" points="123.28,-710.33 133.74,-708.67 124.52,-703.44 123.28,-710.33"/>
</g>
<!-- mulle&#45;mmap -->
<g id="node15" class="node">
<title>mulle&#45;mmap</title>
<g id="a_node15"><a xlink:href="https://github.com/mulle-core/mulle-mmap@*" xlink:title="mulle&#45;mmap">
<polygon fill="lightgrey" stroke="black" points="250,-684 145,-684 145,-648 250,-648 250,-684"/>
<text text-anchor="middle" x="197.5" y="-662.3" font-family="Times,serif" font-size="14.00">mulle&#45;mmap</text>
</a>
</g>
</g>
<!-- mulle&#45;core&#45;&gt;mulle&#45;mmap -->
<g id="edge14" class="edge">
<title>mulle&#45;core&#45;&gt;mulle&#45;mmap</title>
<path fill="none" stroke="black" d="M92.26,-684.83C105.61,-682.42 120.45,-679.74 134.65,-677.17"/>
<polygon fill="black" stroke="black" points="135.63,-680.55 144.85,-675.33 134.38,-673.66 135.63,-680.55"/>
</g>
<!-- mulle&#45;multififo -->
<g id="node16" class="node">
<title>mulle&#45;multififo</title>
<g id="a_node16"><a xlink:href="https://github.com/mulle-concurrent/mulle-multififo@*" xlink:title="mulle&#45;multififo">
<polygon fill="lightgrey" stroke="black" points="258,-630 137,-630 137,-594 258,-594 258,-630"/>
<text text-anchor="middle" x="197.5" y="-608.3" font-family="Times,serif" font-size="14.00">mulle&#45;multififo</text>
</a>
</g>
</g>
<!-- mulle&#45;core&#45;&gt;mulle&#45;multififo -->
<g id="edge15" class="edge">
<title>mulle&#45;core&#45;&gt;mulle&#45;multififo</title>
<path fill="none" stroke="black" d="M71.33,-674.79C87,-663.58 108.08,-649.41 128,-639 131.1,-637.38 134.31,-635.8 137.59,-634.27"/>
<polygon fill="black" stroke="black" points="139.22,-637.37 146.92,-630.09 136.36,-630.98 139.22,-637.37"/>
</g>
<!-- mulle&#45;rbtree -->
<g id="node17" class="node">
<title>mulle&#45;rbtree</title>
<g id="a_node17"><a xlink:href="https://github.com/mulle-c/mulle-rbtree@*" xlink:title="mulle&#45;rbtree">
<polygon fill="lightgrey" stroke="black" points="250.5,-576 144.5,-576 144.5,-540 250.5,-540 250.5,-576"/>
<text text-anchor="middle" x="197.5" y="-554.3" font-family="Times,serif" font-size="14.00">mulle&#45;rbtree</text>
</a>
</g>
</g>
<!-- mulle&#45;core&#45;&gt;mulle&#45;rbtree -->
<g id="edge16" class="edge">
<title>mulle&#45;core&#45;&gt;mulle&#45;rbtree</title>
<path fill="none" stroke="black" d="M56.4,-674.87C69.51,-651.2 95.38,-609.87 128,-585 130.33,-583.22 132.8,-581.54 135.36,-579.96"/>
<polygon fill="black" stroke="black" points="137.3,-582.89 144.34,-574.96 133.9,-576.77 137.3,-582.89"/>
</g>
<!-- mulle&#45;slug -->
<g id="node18" class="node">
<title>mulle&#45;slug</title>
<g id="a_node18"><a xlink:href="https://github.com/mulle-c/mulle-slug@*" xlink:title="mulle&#45;slug">
<polygon fill="lightgrey" stroke="black" points="243,-522 152,-522 152,-486 243,-486 243,-522"/>
<text text-anchor="middle" x="197.5" y="-500.3" font-family="Times,serif" font-size="14.00">mulle&#45;slug</text>
</a>
</g>
</g>
<!-- mulle&#45;core&#45;&gt;mulle&#45;slug -->
<g id="edge17" class="edge">
<title>mulle&#45;core&#45;&gt;mulle&#45;slug</title>
<path fill="none" stroke="black" d="M51.45,-674.82C60.42,-641.77 83.7,-571.56 128,-531 132.35,-527.02 137.35,-523.6 142.64,-520.66"/>
<polygon fill="black" stroke="black" points="144.32,-523.73 151.73,-516.16 141.21,-517.46 144.32,-523.73"/>
</g>
<!-- mulle&#45;sprintf -->
<g id="node19" class="node">
<title>mulle&#45;sprintf</title>
<g id="a_node19"><a xlink:href="https://github.com/mulle-core/mulle-sprintf@*" xlink:title="mulle&#45;sprintf">
<polygon fill="lightgrey" stroke="black" points="252,-468 143,-468 143,-432 252,-432 252,-468"/>
<text text-anchor="middle" x="197.5" y="-446.3" font-family="Times,serif" font-size="14.00">mulle&#45;sprintf</text>
</a>
</g>
</g>
<!-- mulle&#45;core&#45;&gt;mulle&#45;sprintf -->
<g id="edge18" class="edge">
<title>mulle&#45;core&#45;&gt;mulle&#45;sprintf</title>
<path fill="none" stroke="black" d="M48.87,-674.71C53.99,-633.82 71.84,-534.11 128,-477 129.88,-475.09 131.92,-473.3 134.07,-471.65"/>
<polygon fill="black" stroke="black" points="136.43,-474.28 142.84,-465.84 132.57,-468.44 136.43,-474.28"/>
</g>
<!-- mulle&#45;stacktrace -->
<g id="node20" class="node">
<title>mulle&#45;stacktrace</title>
<g id="a_node20"><a xlink:href="https://github.com/mulle-core/mulle-stacktrace@*" xlink:title="mulle&#45;stacktrace">
<polygon fill="lightgrey" stroke="black" points="265,-414 130,-414 130,-378 265,-378 265,-414"/>
<text text-anchor="middle" x="197.5" y="-392.3" font-family="Times,serif" font-size="14.00">mulle&#45;stacktrace</text>
</a>
</g>
</g>
<!-- mulle&#45;core&#45;&gt;mulle&#45;stacktrace -->
<g id="edge19" class="edge">
<title>mulle&#45;core&#45;&gt;mulle&#45;stacktrace</title>
<path fill="none" stroke="black" d="M47.24,-674.96C48.85,-627.45 59.6,-497.4 128,-423 128.78,-422.15 129.59,-421.33 130.42,-420.54"/>
<polygon fill="black" stroke="black" points="132.94,-423.01 138.58,-414.04 128.58,-417.53 132.94,-423.01"/>
</g>
<!-- mulle&#45;storage -->
<g id="node21" class="node">
<title>mulle&#45;storage</title>
<g id="a_node21"><a xlink:href="https://github.com/mulle-c/mulle-storage@*" xlink:title="mulle&#45;storage">
<polygon fill="lightgrey" stroke="black" points="255,-360 140,-360 140,-324 255,-324 255,-360"/>
<text text-anchor="middle" x="197.5" y="-338.3" font-family="Times,serif" font-size="14.00">mulle&#45;storage</text>
</a>
</g>
</g>
<!-- mulle&#45;core&#45;&gt;mulle&#45;storage -->
<g id="edge20" class="edge">
<title>mulle&#45;core&#45;&gt;mulle&#45;storage</title>
<path fill="none" stroke="black" d="M49.35,-674.76C57.56,-613.45 86.8,-415.96 128,-369 129.16,-367.68 130.39,-366.42 131.69,-365.23"/>
<polygon fill="black" stroke="black" points="133.93,-367.91 139.7,-359.02 129.65,-362.38 133.93,-367.91"/>
</g>
<!-- mulle&#45;thread -->
<g id="node22" class="node">
<title>mulle&#45;thread</title>
<g id="a_node22"><a xlink:href="https://github.com/mulle-concurrent/mulle-thread@*" xlink:title="mulle&#45;thread">
<polygon fill="lightgrey" stroke="black" points="251.5,-306 143.5,-306 143.5,-270 251.5,-270 251.5,-306"/>
<text text-anchor="middle" x="197.5" y="-284.3" font-family="Times,serif" font-size="14.00">mulle&#45;thread</text>
</a>
</g>
</g>
<!-- mulle&#45;core&#45;&gt;mulle&#45;thread -->
<g id="edge21" class="edge">
<title>mulle&#45;core&#45;&gt;mulle&#45;thread</title>
<path fill="none" stroke="black" d="M48.65,-674.64C55.1,-606.75 80.58,-370.93 128,-315 129.98,-312.67 132.18,-310.54 134.55,-308.59"/>
<polygon fill="black" stroke="black" points="136.93,-311.2 143.18,-302.65 132.96,-305.44 136.93,-311.2"/>
</g>
<!-- mulle&#45;time -->
<g id="node23" class="node">
<title>mulle&#45;time</title>
<g id="a_node23"><a xlink:href="https://github.com/mulle-core/mulle-time@*" xlink:title="mulle&#45;time">
<polygon fill="lightgrey" stroke="black" points="244,-252 151,-252 151,-216 244,-216 244,-252"/>
<text text-anchor="middle" x="197.5" y="-230.3" font-family="Times,serif" font-size="14.00">mulle&#45;time</text>
</a>
</g>
</g>
<!-- mulle&#45;core&#45;&gt;mulle&#45;time -->
<g id="edge22" class="edge">
<title>mulle&#45;core&#45;&gt;mulle&#45;time</title>
<path fill="none" stroke="black" d="M48.12,-674.63C52.95,-600.73 74.31,-326.01 128,-261 131.86,-256.33 136.64,-252.46 141.86,-249.26"/>
<polygon fill="black" stroke="black" points="143.76,-252.22 151,-244.48 140.51,-246.02 143.76,-252.22"/>
</g>
<!-- mulle&#45;unicode -->
<g id="node24" class="node">
<title>mulle&#45;unicode</title>
<g id="a_node24"><a xlink:href="https://github.com/mulle-c/mulle-unicode@*" xlink:title="mulle&#45;unicode">
<polygon fill="lightgrey" stroke="black" points="255.5,-198 139.5,-198 139.5,-162 255.5,-162 255.5,-198"/>
<text text-anchor="middle" x="197.5" y="-176.3" font-family="Times,serif" font-size="14.00">mulle&#45;unicode</text>
</a>
</g>
</g>
<!-- mulle&#45;core&#45;&gt;mulle&#45;unicode -->
<g id="edge23" class="edge">
<title>mulle&#45;core&#45;&gt;mulle&#45;unicode</title>
<path fill="none" stroke="black" d="M47.69,-674.82C51.03,-595.6 67.94,-281.23 128,-207 129.11,-205.63 130.29,-204.34 131.54,-203.1"/>
<polygon fill="black" stroke="black" points="133.82,-205.77 139.36,-196.74 129.4,-200.34 133.82,-205.77"/>
</g>
<!-- mulle&#45;url -->
<g id="node25" class="node">
<title>mulle&#45;url</title>
<g id="a_node25"><a xlink:href="https://github.com/mulle-c/mulle-url@*" xlink:title="mulle&#45;url">
<polygon fill="lightgrey" stroke="black" points="238,-144 157,-144 157,-108 238,-108 238,-144"/>
<text text-anchor="middle" x="197.5" y="-122.3" font-family="Times,serif" font-size="14.00">mulle&#45;url</text>
</a>
</g>
</g>
<!-- mulle&#45;core&#45;&gt;mulle&#45;url -->
<g id="edge24" class="edge">
<title>mulle&#45;core&#45;&gt;mulle&#45;url</title>
<path fill="none" stroke="black" d="M47.35,-674.83C49.35,-590.35 61.6,-236.45 128,-153 133.09,-146.6 139.92,-141.71 147.29,-137.98"/>
<polygon fill="black" stroke="black" points="149.05,-141.03 156.84,-133.85 146.27,-134.61 149.05,-141.03"/>
</g>
<!-- mulle&#45;utf -->
<g id="node26" class="node">
<title>mulle&#45;utf</title>
<g id="a_node26"><a xlink:href="https://github.com/mulle-c/mulle-utf@*" xlink:title="mulle&#45;utf">
<polygon fill="lightgrey" stroke="black" points="238,-90 157,-90 157,-54 238,-54 238,-90"/>
<text text-anchor="middle" x="197.5" y="-68.3" font-family="Times,serif" font-size="14.00">mulle&#45;utf</text>
</a>
</g>
</g>
<!-- mulle&#45;core&#45;&gt;mulle&#45;utf -->
<g id="edge25" class="edge">
<title>mulle&#45;core&#45;&gt;mulle&#45;utf</title>
<path fill="none" stroke="black" d="M47.08,-674.85C47.82,-585.36 55.23,-191.72 128,-99 133.05,-92.57 139.85,-87.66 147.22,-83.92"/>
<polygon fill="black" stroke="black" points="148.98,-86.98 156.76,-79.79 146.2,-80.55 148.98,-86.98"/>
</g>
<!-- mulle&#45;vararg -->
<g id="node27" class="node">
<title>mulle&#45;vararg</title>
<g id="a_node27"><a xlink:href="https://github.com/mulle-c/mulle-vararg@*" xlink:title="mulle&#45;vararg">
<polygon fill="lightgrey" stroke="black" points="251.5,-36 143.5,-36 143.5,0 251.5,0 251.5,-36"/>
<text text-anchor="middle" x="197.5" y="-14.3" font-family="Times,serif" font-size="14.00">mulle&#45;vararg</text>
</a>
</g>
</g>
<!-- mulle&#45;core&#45;&gt;mulle&#45;vararg -->
<g id="edge26" class="edge">
<title>mulle&#45;core&#45;&gt;mulle&#45;vararg</title>
<path fill="none" stroke="black" d="M46.85,-674.8C46.42,-580.39 48.86,-147.01 128,-45 130.08,-42.32 132.46,-39.91 135.06,-37.74"/>
<polygon fill="black" stroke="black" points="137.22,-40.5 143.43,-31.91 133.22,-34.75 137.22,-40.5"/>
</g>
</g>
</svg>
